<svg width="84" height="84" viewBox="0 0 84 84" fill="none" xmlns="http://www.w3.org/2000/svg">
<path d="M84 42C84 65.1963 65.1963 84 42 84C18.8037 84 0 65.1963 0 42C0 18.8037 18.8037 0 42 0C65.1963 0 84 18.8037 84 42Z" fill="#2EC3E9"/>
<path d="M50.3492 73.7594V78.5576C45.9432 81.057 41.0387 82.7835 35.8239 83.5493C28.816 82.5156 22.3701 79.7522 16.9375 75.7064C14.2785 73.7267 11.8618 71.4382 9.73926 68.8939C11.6561 63.0447 16.9375 58.7182 23.2975 58.2036C23.7192 58.1696 24.1447 58.1523 24.5747 58.1523H34.7389C35.9406 58.1523 37.1095 58.2863 38.2323 58.5433C45.1716 60.1307 50.3492 66.3414 50.3492 73.7594Z" fill="#DD3033"/>
<path d="M50.3492 73.7594V83.1706C47.6505 83.714 44.8602 84.0005 42.0006 84.0005C32.6061 84.0005 23.9339 80.9167 16.9375 75.7064V73.7594C16.9375 65.1397 23.9268 58.1523 32.5478 58.1523H34.7389C43.3618 58.1523 50.3492 65.1397 50.3492 73.7594Z" fill="#F74F4F"/>
<path d="M14.3812 40.938C14.3812 43.5162 12.4977 45.6535 10.0316 46.0502C9.76242 46.0944 9.48493 46.1169 9.2023 46.1169C6.34146 46.1169 4.02344 43.7988 4.02344 40.938C4.02344 38.0778 6.34146 35.7598 9.2023 35.7598C9.48493 35.7598 9.76242 35.7822 10.0316 35.8264C12.4977 36.2231 14.3812 38.3604 14.3812 40.938Z" fill="#D3A489"/>
<path d="M33.8471 63.7832L29.6571 70.5034L25.4678 63.7832" fill="#F2F0EC"/>
<path d="M33.342 83.1056C30.9829 82.6121 28.6963 81.9193 26.502 81.0471L29.6576 68.7559L33.342 83.1056Z" fill="#F2F0EC"/>
<path d="M14.3813 40.9397C14.3813 43.5179 12.4978 45.6552 10.0317 46.0519C9.58441 44.4235 9.34473 42.7091 9.34473 40.9397C9.34473 39.1709 9.58377 37.4566 10.0317 35.8281C12.4978 36.2248 14.3813 38.3621 14.3813 40.9397Z" fill="#BF8E75"/>
<path d="M11.0532 40.9387C11.0532 41.9615 10.2246 42.7902 9.20239 42.7902C8.18021 42.7902 7.35156 41.9615 7.35156 40.9387C7.35156 39.9165 8.18021 39.0879 9.20239 39.0879C10.2246 39.0879 11.0532 39.9165 11.0532 40.9387Z" fill="#BF8E75"/>
<path d="M29.6556 64.5411L22.6285 68.4459L20.4912 58.5034L24.8568 55.9316" fill="#DD3033"/>
<path d="M29.6562 64.5411L36.6827 68.4459L38.82 58.5034L34.4538 55.9316" fill="#DD3033"/>
<path d="M44.9316 40.938C44.9316 43.5162 46.8152 45.6535 49.2812 46.0502C49.5504 46.0944 49.8279 46.1169 50.1105 46.1169C52.9713 46.1169 55.2894 43.7988 55.2894 40.938C55.2894 38.0778 52.9713 35.7598 50.1105 35.7598C49.8279 35.7598 49.5504 35.7822 49.2812 35.8264C46.8152 36.2231 44.9316 38.3604 44.9316 40.938Z" fill="#D3A489"/>
<path d="M44.9316 40.9377C44.9316 43.516 46.8152 45.6533 49.2812 46.05C49.7285 44.4215 49.9682 42.7072 49.9682 40.9377C49.9682 39.1689 49.7292 37.4546 49.2812 35.8262C46.8152 36.2229 44.9316 38.3602 44.9316 40.9377Z" fill="#BF8E75"/>
<path d="M51.9614 40.9387C51.9614 41.9615 51.1328 42.7902 50.1106 42.7902C49.0884 42.7902 48.2598 41.9615 48.2598 40.9387C48.2598 39.9165 49.0884 39.0879 50.1106 39.0879C51.1328 39.0879 51.9614 39.9165 51.9614 40.9387Z" fill="#BF8E75"/>
<path d="M48.9248 38.186C48.9248 47.7747 41.9201 55.7285 32.7492 57.2057C31.7431 57.3704 30.7106 57.4543 29.657 57.4543C19.0148 57.4543 10.3887 48.8283 10.3887 38.186C10.3887 33.1513 14.0673 25.5923 17.2293 22.1598C20.7502 18.3376 24.0501 18.9182 29.657 18.9182C30.7106 18.9182 31.7431 19.0016 32.7492 19.1669C41.9201 20.6435 48.9248 28.5979 48.9248 38.186Z" fill="#BF8E75"/>
<path d="M35.2259 52.1387V58.9729C35.2259 61.4749 33.5763 63.5891 31.3044 64.2915C30.784 64.453 30.2297 64.5408 29.6567 64.5408C26.5812 64.5408 24.0889 62.0478 24.0889 58.9729V52.1387H35.2259Z" fill="#BF8E75"/>
<path d="M35.2249 58.541V58.9742C35.2249 61.4762 33.5753 63.5904 31.3034 64.2928C29.2532 63.6628 27.7113 61.8799 27.4268 59.6991C27.7991 59.7221 28.1727 59.733 28.5489 59.733C29.6025 59.733 30.6349 59.6497 31.6411 59.4844C32.8806 59.2851 34.0783 58.9666 35.2249 58.541Z" fill="#D3A489"/>
<path d="M48.9243 38.187C48.9243 47.7757 41.9196 55.7296 32.7488 57.2068C23.5779 55.7296 16.5732 47.7757 16.5732 38.187C16.5732 32.2834 19.229 26.9987 23.4132 23.4637C26.0209 21.2578 29.2253 19.7351 32.7488 19.168C41.2986 20.5439 47.9681 27.5525 48.8295 36.2664C48.8923 36.8983 48.9243 37.5398 48.9243 38.187Z" fill="#D3A489"/>
<path d="M29.6574 48.5341C28.0437 48.5341 26.4307 48.1297 24.9599 47.3209C24.5452 47.0934 24.394 46.5724 24.6215 46.1571C24.8496 45.7425 25.3707 45.5912 25.7859 45.8187C28.2097 47.1518 31.1045 47.1518 33.5289 45.8187C33.9436 45.5912 34.4646 45.7425 34.6927 46.1571C34.9209 46.5724 34.7696 47.0934 34.355 47.3209C32.8842 48.1297 31.2711 48.5341 29.6574 48.5341Z" fill="#BF8E75"/>
<path d="M25.553 37.0649C25.553 38.2717 24.5744 39.2503 23.367 39.2503C22.1602 39.2503 21.1816 38.2717 21.1816 37.0649C21.1816 35.8575 22.1602 34.8789 23.367 34.8789C24.5744 34.8789 25.553 35.8575 25.553 37.0649Z" fill="#3D4159"/>
<path d="M38.1311 37.0649C38.1311 38.2717 37.1525 39.2503 35.9451 39.2503C34.7384 39.2503 33.7598 38.2717 33.7598 37.0649C33.7598 35.8575 34.7384 34.8789 35.9451 34.8789C37.1525 34.8789 38.1311 35.8575 38.1311 37.0649Z" fill="#3D4159"/>
<path d="M25.107 36.6791C25.107 37.1963 24.6879 37.6154 24.1707 37.6154C23.6535 37.6154 23.2344 37.1963 23.2344 36.6791C23.2344 36.162 23.6535 35.7422 24.1707 35.7422C24.6879 35.7422 25.107 36.162 25.107 36.6791Z" fill="white"/>
<path d="M37.7932 36.6791C37.7932 37.1963 37.3741 37.6154 36.8569 37.6154C36.3397 37.6154 35.9199 37.1963 35.9199 36.6791C35.9199 36.162 36.3397 35.7422 36.8569 35.7422C37.3741 35.7422 37.7932 36.162 37.7932 36.6791Z" fill="white"/>
<path d="M31.8424 42.5677H27.471C26.9507 42.5677 26.5283 42.1454 26.5283 41.625C26.5283 41.104 26.9507 40.6816 27.471 40.6816H31.8424C32.3634 40.6816 32.7858 41.104 32.7858 41.625C32.7858 42.1454 32.3634 42.5677 31.8424 42.5677Z" fill="#BF8E75"/>
<path d="M36.001 73.2461H44.4009V75.8173H36.001V73.2461Z" fill="#DD3033"/>
<path d="M28.5293 13.4137C34.3657 13.8309 39.0524 18.5457 39.3497 24.4815L39.4048 25.5953H42.7617L44.5709 37.6212L48.9512 36.2651L48.3629 24.4815C48.0521 18.2464 42.8957 13.3605 36.6549 13.3829L28.5293 13.4137Z" fill="#2A2F4F"/>
<path d="M47.991 8.76367C52.6392 13.4119 52.6392 20.9479 47.991 25.5955C43.3434 30.2437 35.8074 30.2437 31.1592 25.5955L47.991 8.76367Z" fill="#3D4159"/>
<path d="M31.1601 25.5947H16.5522L14.743 37.6212L10.3633 36.2651L10.951 24.4808C11.2611 18.2471 16.4182 13.3598 22.659 13.3829L43.7558 13.4624L46.5448 18.4829" fill="#3D4159"/>
<path d="M30.7842 13.4137C24.9478 13.8309 20.2612 18.5457 19.9638 24.4815L19.9087 25.5953H16.5518L14.7426 37.6212L10.3623 36.2651L10.9513 24.4815C11.2614 18.2464 16.4179 13.3605 22.6587 13.3829L30.7842 13.4137Z" fill="#2A2F4F"/>
<path d="M41.0635 4.59961H79.1106V33.1984H41.0635V4.59961Z" fill="#F2F0EC"/>
<path d="M48.7242 31.4112L44.6387 41.1139L62.5132 30.9004L48.7242 31.4112Z" fill="#F2F0EC"/>
<path d="M58.4673 21.8674C58.4673 22.7121 59.1639 23.3485 60.0868 23.3485C60.8661 23.3485 61.7069 22.7826 61.7069 21.8674C61.7069 20.0768 61.7774 18.0793 61.8453 16.1477C61.9139 14.2103 61.9844 12.207 61.9844 10.4036C61.9844 9.33075 61.1865 8.55273 60.0874 8.55273C58.9704 8.55273 58.1904 9.31345 58.1904 10.4036C58.1904 12.207 58.2609 14.2103 58.3289 16.1477C58.3968 18.0793 58.4673 20.0768 58.4673 21.8674Z" fill="#3D4159"/>
<path d="M60.1105 25.1055C58.9621 25.1055 58.0283 26.0392 58.0283 27.1877C58.0283 28.3226 58.9621 29.2468 60.1105 29.2468C61.2141 29.2468 62.1465 28.3034 62.1465 27.1877C62.1465 26.0392 61.2333 25.1055 60.1105 25.1055Z" fill="#3D4159"/>
</svg>
