<svg width="371" height="251" viewBox="0 0 371 251" fill="none" xmlns="http://www.w3.org/2000/svg">
<path d="M274.912 49.0253C274.912 49.0253 266.912 49.6953 265.202 49.0253C263.492 48.3553 258.202 46.4153 257.822 47.9653C257.442 49.5153 260.492 50.2953 260.492 50.2953C260.492 50.2953 255.062 51.6553 253.552 52.1053C252.042 52.5553 252.892 53.9653 254.112 53.7553C254.112 53.7553 250.962 55.1753 252.042 55.8953C252.386 56.1031 252.77 56.2395 253.168 56.2961C253.567 56.3528 253.973 56.3287 254.362 56.2253C254.362 56.2253 252.932 57.3953 254.562 58.1153C256.077 57.9857 257.568 57.6492 258.992 57.1153C258.992 57.1153 257.162 58.6753 257.752 59.1153C258.342 59.5553 258.172 59.9653 263.632 57.1153C263.632 57.1153 275.032 54.5753 277.572 54.1153" fill="#FFDCCD"/>
<path d="M289.382 26.6553C289.382 26.6553 285.652 38.0753 282.512 41.0853C280.312 43.1953 270.782 46.4453 265.272 48.2053C265.489 51.7388 266.756 55.1269 268.912 57.9353C277.002 56.0653 290.132 51.3553 293.352 47.5353C298.072 41.9453 300.222 33.7753 300.222 33.7753L289.382 26.6553Z" fill="#2FDC92"/>
<path opacity="0.39" d="M289.382 26.6553C289.382 26.6553 285.652 38.0753 282.512 41.0853C280.312 43.1953 270.782 46.4453 265.272 48.2053C265.489 51.7388 266.756 55.1269 268.912 57.9353C277.002 56.0653 290.132 51.3553 293.352 47.5353C298.072 41.9453 300.222 33.7753 300.222 33.7753L289.382 26.6553Z" fill="white"/>
<path d="M179.712 247.975L7.20166 146.025C1.71167 142.945 -2.99834 137.875 2.35166 134.565L175.492 34.7853C178.092 33.1753 182.032 32.1253 184.672 33.6553L365.742 138.745C371.232 141.935 372.222 150.845 366.742 154.035L202.452 247.805C199.003 249.808 195.092 250.877 191.104 250.906C187.116 250.936 183.19 249.926 179.712 247.975Z" fill="white"/>
<path style="mix-blend-mode:multiply" opacity="0.63" d="M159.572 228.295C116.982 200.165 92.3717 197.395 52.7617 168.295C77.8617 155.215 120.502 129.765 135.992 120.075L241.552 181.725L161.552 228.305L159.572 228.295Z" fill="url(#paint0_linear)"/>
<path d="M113.082 159.365L114.142 153.765C114.354 152.943 114.511 152.108 114.612 151.265C114.578 150.543 114.488 149.824 114.342 149.115C114.359 148.474 114.281 147.834 114.112 147.215C113.862 146.815 113.032 146.465 112.662 146.215L110.502 144.715C109.881 144.236 109.404 143.596 109.122 142.865L106.462 137.865L104.272 133.765C103.822 132.925 104.582 131.365 104.792 130.485C104.844 129.883 104.989 129.293 105.222 128.735L106.472 127.125C107.402 125.935 108.202 125.245 107.962 123.555C107.902 123.175 107.672 122.965 107.962 122.685C107.962 122.685 107.862 122.105 107.912 121.915C108.032 121.405 106.912 120.915 107.012 120.435C107.112 119.955 107.132 119.895 106.632 119.605C106.132 119.315 106.272 119.415 105.902 119.605C105.631 119.774 105.383 119.976 105.162 120.205C105.032 120.325 105.402 120.755 105.482 120.905C104.762 121.215 104.792 121.295 104.482 120.515C104.332 120.945 103.612 120.215 103.212 120.145C103.002 120.145 102.862 120.345 102.732 120.255L102.072 119.755C101.622 119.415 100.732 118.995 100.422 118.505C100.112 118.015 100.292 117.505 99.9517 117.065C99.1017 116.065 98.5817 115.215 97.3917 114.875C96.4717 114.625 94.9417 114.555 94.2117 113.875L92.2917 111.985C91.8717 111.575 91.2917 111.985 90.7817 112.165C89.6517 112.515 88.4917 111.685 87.4117 111.255L84.7917 110.195C84.4376 110.111 84.0998 109.969 83.7917 109.775L82.0917 108.045C81.5617 107.515 81.8817 107.195 82.0917 106.455C82.2317 105.975 81.3317 105.015 81.0917 104.635C80.8408 104.234 80.5382 103.868 80.1917 103.545L78.3517 101.845C78.2117 101.715 78.3517 101.325 78.4217 101.145C78.4917 100.965 78.1217 100.665 78.0217 100.535L77.6417 100.045C77.6817 101.199 77.7384 102.349 77.8117 103.495C78.0517 103.705 78.3417 104.025 78.3017 104.315C78.2617 104.605 78.0717 104.755 77.8917 104.725C79.9159 130.647 91.7115 154.831 110.892 172.385C111.012 171.115 111.162 169.845 111.392 168.605L113.082 159.365Z" fill="#2FDC92"/>
<path d="M281.692 107.005C281.752 107.285 281.752 107.865 281.262 107.605C281.132 107.535 280.982 106.875 280.912 106.715C281.072 106.715 281.212 106.545 281.382 106.515C281.116 106.269 280.779 106.114 280.419 106.072C280.06 106.031 279.696 106.106 279.382 106.285C278.912 106.665 277.772 107.225 277.572 107.845C277.512 108.035 277.142 108.845 277.242 109.015L278.092 110.365C278.492 111.015 278.992 111.585 279.452 112.185C279.912 112.785 280.362 113.185 280.402 114.185C280.402 114.775 280.752 116.185 280.322 116.555C279.119 117.688 277.857 118.756 276.542 119.755C276.102 119.305 276.712 118.625 276.402 118.295L275.202 116.885C274.925 116.503 274.567 116.187 274.154 115.959C273.741 115.73 273.283 115.596 272.812 115.565L272.912 114.815C271.912 114.815 272.092 114.995 272.002 116.085C271.89 116.737 271.688 117.369 271.402 117.965C271.344 118.239 271.344 118.522 271.402 118.795C271.402 119.325 271.402 119.235 271.932 119.215C272.182 119.215 272.492 120.815 272.582 121.105C272.732 121.595 273.682 122.045 274.052 122.325C274.495 122.66 274.866 123.082 275.142 123.565C275.362 124.135 275.142 124.955 275.262 125.565C275.453 126.153 275.684 126.728 275.952 127.285C275.166 127.063 274.452 126.639 273.882 126.055C273.232 125.545 273.192 125.255 272.882 124.405C272.744 123.587 272.481 122.794 272.102 122.055L270.282 120.115C270.012 119.815 270.392 118.225 270.442 117.775C270.45 116.916 270.394 116.056 270.272 115.205C270.105 113.65 269.746 112.122 269.202 110.655L268.202 111.845C267.792 112.345 267.832 112.335 267.202 112.195C266.572 112.055 266.602 112.105 266.702 111.395C266.702 111.085 267.002 110.285 266.872 110.005C266.605 109.04 266.091 108.161 265.382 107.455C264.752 106.762 264.297 105.929 264.052 105.025C263.692 105.275 263.182 105.835 262.752 105.885L260.492 106.195C260.392 106.195 259.922 106.195 259.842 106.285C259.762 106.375 259.942 106.945 259.842 107.085L258.732 108.225L255.582 111.465C255.118 111.789 254.609 112.041 254.072 112.215C253.512 112.485 253.722 112.905 253.732 113.575C253.817 114.239 253.817 114.911 253.732 115.575C253.592 116.085 253.182 116.895 253.322 117.415C253.424 118.086 253.715 118.714 254.162 119.225C254.571 119.764 254.892 120.365 255.112 121.005C255.632 122.205 253.592 123.255 253.442 121.635C253.371 120.941 253.351 120.243 253.382 119.545C253.382 118.845 253.162 118.745 252.692 118.245C252.632 118.735 252.692 119.245 252.322 119.505L251.042 120.345C249.862 118.105 248.852 115.795 247.822 113.455C247.472 112.818 247.184 112.148 246.962 111.455C246.899 110.934 246.882 110.409 246.912 109.885C246.865 108.392 246.818 106.902 246.772 105.415L245.832 106.715C245.522 107.155 245.482 107.095 244.952 107.075C244.422 107.055 243.692 105.935 243.282 105.495C243.702 105.405 244.582 105.495 244.652 104.875C244.406 104.932 244.154 104.956 243.902 104.945C243.25 104.688 242.632 104.352 242.062 103.945C241.682 103.725 241.442 102.745 241.242 102.335C241.042 101.925 237.872 102.585 237.342 102.655C236.15 102.654 234.967 102.455 233.842 102.065C233.342 101.955 232.762 102.005 232.502 101.495C232.042 100.575 232.152 100.315 231.242 100.645C230.59 100.845 229.893 100.845 229.242 100.645C228.742 100.565 228.422 99.9553 227.972 99.7353C227.658 99.634 227.375 99.4569 227.146 99.2196C226.917 98.9824 226.751 98.6924 226.662 98.3753C226.392 97.7953 226.282 97.0453 225.662 96.9553C224.612 96.8053 224.662 96.8453 223.882 97.7053C223.632 98.0053 224.512 99.0653 224.702 99.3753C225.362 100.475 225.922 101.645 226.522 102.775C226.612 102.255 226.692 101.775 226.772 101.235C227.101 102.004 227.228 102.844 227.142 103.675C228.059 103.753 228.982 103.637 229.852 103.335C230.562 102.707 231.19 101.991 231.722 101.205C231.772 101.855 231.612 102.915 232.152 103.275C232.464 103.528 232.799 103.752 233.152 103.945C233.452 104.075 233.812 103.945 233.992 104.295C234.172 104.645 234.332 105.195 234.592 105.235C235.052 105.315 234.862 105.635 234.832 106.115C234.802 106.595 233.832 107.405 233.522 107.755C233.522 107.605 233.382 107.465 233.362 107.315C233.102 107.78 232.964 108.303 232.962 108.835C232.962 109.395 232.752 109.335 232.282 109.565L230.832 110.255C230.542 110.385 230.552 111.195 230.282 111.335C230.012 111.475 229.702 111.145 229.462 111.245L228.402 111.705C227.922 111.925 227.982 112.575 227.542 112.705L225.142 113.565C224.902 113.645 224.862 113.775 224.712 114.005C224.562 114.235 224.272 114.275 223.942 114.335C223.252 114.465 222.562 114.695 221.882 114.875C221.372 115.005 221.272 115.585 220.722 115.585C219.862 115.585 219.792 115.775 219.622 114.885L219.122 112.185C218.799 110.91 218.235 109.709 217.462 108.645C217.032 107.925 216.972 107.795 216.232 107.515C215.802 107.355 215.812 106.055 215.732 105.605C215.537 104.931 215.248 104.288 214.872 103.695C214.692 103.335 214.272 103.155 214.042 102.755L212.612 100.185C212.372 99.7653 212.192 99.0253 211.612 99.1853C211.682 98.6653 211.752 98.1353 211.822 97.6053L211.202 99.4953C210.555 98.7961 210.028 97.9954 209.642 97.1253C209.132 97.7653 210.032 98.8353 210.322 99.4253L212.072 103.005C212.422 103.715 212.292 104.515 212.812 105.075C213.032 105.315 213.592 105.705 213.642 106.075C213.732 106.685 213.832 107.285 213.922 107.885C213.972 108.235 213.922 108.885 214.202 109.165C214.594 109.459 214.952 109.794 215.272 110.165C215.695 111.071 216.03 112.015 216.272 112.985C216.382 113.285 217.272 113.235 217.432 113.485L218.432 114.625C218.972 115.255 220.072 115.945 219.222 116.765C219.792 116.935 220.412 118.115 220.872 118.005L225.562 116.745C225.852 116.675 226.682 116.315 226.922 116.745C227.072 117.005 226.522 118.505 226.452 118.825C226.014 120.074 225.415 121.261 224.672 122.355C224.245 123.323 223.694 124.231 223.032 125.055C221.142 127.055 218.932 128.875 217.522 131.305C217.202 131.835 215.182 134.595 215.522 135.085C215.76 135.366 215.929 135.698 216.018 136.056C216.106 136.413 216.111 136.786 216.032 137.145C215.966 137.461 215.983 137.789 216.079 138.097C216.175 138.404 216.348 138.683 216.582 138.905C217.432 140.055 217.142 141.835 217.212 143.285C217.191 143.846 217.027 144.391 216.735 144.869C216.442 145.348 216.031 145.742 215.542 146.015C215.062 146.245 214.092 146.475 213.732 146.895L212.322 148.545C211.902 149.025 211.402 149.255 211.662 149.885C211.842 150.305 212.482 151.275 212.432 151.725C212.465 152.477 212.38 153.229 212.182 153.955C211.942 154.345 210.752 154.635 210.352 154.825C209.692 155.145 209.832 155.445 209.752 156.265C209.795 156.938 209.727 157.614 209.552 158.265C208.817 159.455 208.009 160.597 207.132 161.685C206.62 162.177 206.083 162.641 205.522 163.075C205.222 163.335 204.642 164.075 204.252 164.155L200.062 165.035L198.132 165.445C197.822 165.505 197.192 164.695 196.972 164.445C196.212 163.765 196.242 163.775 196.352 162.675C196.352 162.255 195.922 161.505 195.772 161.135L194.772 158.695C194.582 158.215 193.982 157.835 193.622 157.485C193.262 157.135 193.382 156.125 193.332 155.785L192.902 152.995C192.629 151.817 192.17 150.689 191.542 149.655L190.472 147.475C190.312 147.155 190.532 146.555 190.582 146.225C190.635 144.686 190.974 143.171 191.582 141.755C192.332 140.435 191.872 139.375 191.582 138.005L190.582 133.555C190.472 133.105 189.882 132.555 189.582 132.225L188.072 130.225C187.802 129.865 187.992 129.395 188.072 128.935C188.172 128.015 188.282 127.085 188.392 126.165C188.502 125.245 188.522 125.325 188.072 124.695C187.622 124.065 187.572 123.905 186.752 123.955C186.282 123.955 185.322 124.285 184.982 123.865L183.532 122.085C183.322 121.825 180.372 122.295 180.002 122.485L177.912 123.555C177.362 123.835 177.122 123.695 176.522 123.555C176.013 123.326 175.442 123.276 174.902 123.415L172.612 124.225C172.252 124.355 171.842 123.865 171.542 123.645L169.342 122.065C168.51 121.587 167.82 120.897 167.342 120.065L164.542 115.195L163.642 113.635C163.502 113.395 164.002 112.485 164.092 112.235C164.252 111.805 164.732 111.015 164.632 110.535C164.462 109.755 164.282 108.985 164.112 108.205C163.876 107.561 163.728 106.889 163.672 106.205C163.818 105.818 164.02 105.454 164.272 105.125L166.972 100.245C167.568 99.3011 168.426 98.5506 169.442 98.0853C170.002 97.7253 170.252 97.7253 170.362 97.0353L170.752 94.4553C170.902 93.4553 172.922 93.2553 173.322 92.2653C173.602 91.5753 173.722 90.6153 174.412 90.4253C174.592 90.3753 175.092 91.3153 175.652 91.1953C175.902 91.1453 176.472 90.8953 176.712 91.0153C176.952 91.1353 177.352 91.4653 177.472 91.3953C178.007 91.0338 178.562 90.7001 179.132 90.3953C180.231 89.8725 181.4 89.5088 182.602 89.3153C182.95 89.2211 183.311 89.1839 183.672 89.2053C183.938 89.3444 184.225 89.439 184.522 89.4853C184.812 89.4853 185.082 89.1453 185.362 89.0853C185.624 89.0592 185.889 89.0592 186.152 89.0853C186.804 89.2359 187.489 89.1583 188.092 88.8653C188.622 88.5453 189.092 88.9653 189.682 89.2053C189.272 90.1053 189.192 90.1453 189.682 91.0053C189.902 91.3953 189.062 92.0053 188.792 92.2953C189.232 92.6953 189.792 93.4253 190.342 93.5653L193.212 94.3253C193.952 94.5153 193.742 95.3253 194.472 95.6553C195.202 95.9853 195.712 95.8253 196.302 96.2453C197.142 96.8353 197.572 96.9753 198.112 95.9253C198.232 95.6753 197.832 95.2953 197.962 95.0653C198.092 94.8353 198.292 94.2853 198.482 94.2253C199.216 93.9175 200.032 93.8613 200.802 94.0653C201.012 94.1253 200.802 94.5453 201.092 94.6053L202.392 94.8753C202.742 94.9453 202.752 95.1153 202.932 95.4653C203.022 95.6453 203.362 95.2453 203.512 95.2953L205.582 95.9053C205.834 96.0277 206.115 96.0802 206.394 96.0573C206.674 96.0344 206.942 95.9371 207.172 95.7753C207.972 95.3853 208.042 95.2653 208.832 95.6453C209.072 95.7872 209.34 95.8771 209.617 95.9093C209.894 95.9415 210.175 95.9154 210.442 95.8325C210.708 95.7496 210.954 95.6118 211.165 95.428C211.375 95.2442 211.544 95.0185 211.662 94.7653C211.902 94.0853 213.012 92.1053 212.792 91.1953L211.142 90.9453C211.065 91.0128 211.016 91.1059 211.003 91.2071C210.99 91.3083 211.014 91.4108 211.072 91.4953C210.882 91.5553 208.952 92.0953 209.422 91.1553C209.562 90.8753 210.282 91.0253 210.422 91.0453C210.586 91.0445 210.747 91.0033 210.892 90.9253C207.558 90.4453 204.225 90.012 200.892 89.6253V89.6853C200.691 89.6651 200.493 89.6215 200.302 89.5553C198.055 89.2953 195.808 89.0553 193.562 88.8353C193.574 88.8932 193.59 88.9501 193.612 89.0053C193.842 89.4653 192.902 89.6153 192.802 89.2453C192.702 88.8753 192.292 88.8153 191.882 88.6753C187.608 88.282 183.328 87.9486 179.042 87.6753C178.852 87.9053 178.692 88.1553 178.792 88.3653C178.582 88.4153 178.092 88.4353 177.972 88.6353C177.852 88.8353 177.632 89.3553 177.442 89.3653C176.832 89.4077 176.221 89.4077 175.612 89.3653C175.072 89.3653 174.752 90.0053 174.322 90.1453C173.892 90.2853 173.242 89.4153 173.722 89.0753C173.252 89.2953 173.032 88.5053 172.432 88.8453C171.832 89.1853 171.612 88.7053 171.182 89.0353C171.276 88.6933 171.323 88.3401 171.322 87.9853C171.322 87.7853 171.322 87.5953 171.322 87.3953C171.322 87.1953 171.322 87.3253 171.322 87.3153C171.252 87.3153 171.152 87.4053 171.102 87.3153L168.102 87.2053C148.312 86.511 128.5 87.5147 108.882 90.2053L108.602 90.2853C108.952 90.2853 109.552 90.1753 109.462 90.6853C109.462 90.8953 108.712 90.9053 108.512 90.9453C108.612 91.0053 108.702 91.1053 108.812 91.1653C108.652 91.2153 108.572 91.3253 108.372 91.3253C108.542 91.7453 108.792 91.3253 109.072 91.5353L108.482 91.8553C108.332 91.9353 108.112 91.6853 107.992 91.7553C107.872 91.8253 107.512 92.4453 107.352 92.6953C107.192 92.9453 106.812 92.7953 106.582 93.0753C106.411 93.3592 106.191 93.6099 105.932 93.8153C105.176 94.1908 104.598 94.8479 104.322 95.6453C104.136 96.2545 104.186 96.9112 104.462 97.4853C104.842 98.3024 105.156 99.1484 105.402 100.015C105.542 100.485 105.662 101.705 105.322 102.015C104.982 102.325 104.842 102.615 104.542 102.195C104.442 102.065 103.892 101.565 103.882 101.525C103.775 101.18 103.638 100.846 103.472 100.525C103.312 100.155 103.122 99.9453 103.232 99.5253L103.032 99.6953C102.872 99.1353 103.382 98.3353 102.822 97.9553C102.262 97.5753 102.062 96.9553 101.482 97.1353C101.172 97.2353 100.842 97.4653 100.552 97.2753C100.282 97.0439 99.9823 96.8489 99.6616 96.6953C99.1516 96.5553 98.3016 97.2353 98.1516 96.3653C98.0516 97.1153 96.3916 96.5753 95.8916 96.9653C96.2316 96.9653 97.5116 97.1553 96.5616 97.6153C96.6616 97.6653 97.1816 97.8453 97.2016 97.9453C97.2143 97.9933 97.214 98.0438 97.2007 98.0917C97.1874 98.1395 97.1616 98.183 97.126 98.2176C97.0904 98.2522 97.0462 98.2767 96.998 98.2886C96.9498 98.3005 96.8992 98.2994 96.8516 98.2853C96.9916 97.9353 96.4716 97.8053 96.2216 97.6553C96.2716 97.9053 96.1716 97.9853 96.1616 98.1653C95.9316 97.6853 95.7216 98.1653 95.4116 97.9453C95.1016 97.7253 94.8416 97.3653 94.4116 97.5253C94.1516 97.6153 93.7816 97.3753 93.5316 97.2753C93.0616 97.0953 92.3116 97.6353 91.8616 97.8253C91.1216 98.1253 89.3416 99.4453 89.3316 100.515C89.3316 100.845 89.7616 101.175 89.7816 101.515C89.7415 101.791 89.6641 102.06 89.5516 102.315C89.33 102.893 89.1887 103.499 89.1316 104.115C89.0522 105.505 89.424 106.884 90.1916 108.045C90.6916 108.795 90.8816 109.325 91.7016 109.565C91.8716 109.625 92.1416 110.045 92.2816 109.985L93.2816 109.605C93.5721 109.488 93.8792 109.417 94.1916 109.395C94.4316 109.395 94.6216 109.695 94.7516 109.635C94.9027 109.587 95.0471 109.52 95.1816 109.435C95.2616 109.365 95.0616 109.165 95.1816 109.055C95.4486 108.879 95.6437 108.613 95.7316 108.305C95.9216 107.655 95.8716 106.895 96.5516 106.615C97.0405 106.44 97.5528 106.339 98.0716 106.315C98.4616 106.315 99.5716 106.135 99.2216 106.975C99.0816 107.305 98.6316 108.295 98.3916 108.315C98.5116 108.385 98.4416 108.505 98.7216 108.495C98.6116 108.585 98.5316 108.705 98.4316 108.785L98.4816 108.855L98.6416 108.745C98.4926 109.137 98.382 109.542 98.3116 109.955C98.2239 109.864 98.1598 109.752 98.1249 109.63C98.0901 109.508 98.0855 109.379 98.1116 109.255C98.0045 109.398 97.9139 109.552 97.8416 109.715C98.3616 109.715 97.7616 110.715 97.9416 111.105C98.1216 111.495 97.5416 112.105 97.3116 112.275C98.0579 112.404 98.8144 112.464 99.5716 112.455C99.8816 112.455 100.112 112.215 100.432 112.275C100.817 112.279 101.2 112.333 101.572 112.435C101.903 112.531 102.187 112.745 102.371 113.036C102.555 113.327 102.627 113.675 102.572 114.015C102.492 114.525 102.412 115.015 102.332 115.555C102.332 115.855 102.042 116.115 102.002 116.395C101.832 117.785 103.512 120.055 104.772 119.535C105.552 119.215 105.952 118.895 106.772 119.145C107.46 119.396 108.052 119.858 108.462 120.465C108.462 119.465 109.642 118.145 110.112 117.345C110.252 117.095 111.172 116.955 111.412 116.865L113.412 116.145C114.022 115.925 115.122 116.455 115.722 116.595L120.442 117.695C121.295 117.748 122.116 118.039 122.812 118.535L126.492 122.065C127.272 122.805 128.962 122.825 129.942 123.065C130.922 123.305 131.592 124.825 132.172 125.595L133.942 127.915C134.082 128.105 134.402 128.725 134.622 128.795L138.412 130.165L142.202 131.535C143.28 132.124 144.287 132.835 145.202 133.655C145.372 133.655 146.542 133.655 146.582 133.815C146.712 134.385 146.842 134.945 146.972 135.505C147.252 136.725 147.282 136.705 146.612 137.675L144.142 141.235C143.688 141.706 143.376 142.295 143.242 142.935C143.112 144.685 142.992 146.435 142.862 148.185C142.782 149.345 141.572 150.535 140.982 151.455C140.722 151.845 140.502 152.515 139.982 152.545C139.462 152.575 138.482 152.415 138.102 152.675L134.642 155.055C134.412 155.215 134.422 156.945 134.382 157.245C134.342 157.545 134.382 158.245 134.172 158.535L131.302 162.225L128.722 165.655C128.522 165.905 125.722 164.715 125.332 164.585C125.082 165.535 126.662 165.585 126.822 166.455C127.002 166.961 127.11 167.49 127.142 168.025C127.072 168.385 126.542 168.905 126.352 169.195C125.772 170.045 124.992 170.025 124.062 170.275C123.327 170.487 122.547 170.487 121.812 170.275C121.992 170.855 122.132 171.095 121.922 171.645C121.792 171.985 121.922 172.545 121.752 172.645C120.842 173.285 120.302 173.005 119.352 172.535C119.296 173.06 119.296 173.59 119.352 174.115C119.432 174.455 119.982 175.025 119.842 175.345L118.972 177.225C118.692 177.845 118.582 177.785 117.972 177.935C117.893 177.961 117.819 177.998 117.752 178.045C130.364 187.743 145.054 194.381 160.666 197.439C176.279 200.497 192.388 199.89 207.726 195.667C223.065 191.444 237.214 183.72 249.061 173.102C260.908 162.484 270.13 149.261 276.002 134.475C275.222 133.735 274.502 132.975 273.792 132.205C273.391 131.817 273.054 131.368 272.792 130.875C272.554 130.124 272.218 129.408 271.792 128.745C271.612 128.555 271.332 128.655 271.262 128.365L270.922 127.105C270.732 126.395 269.832 126.545 269.802 125.775C269.772 125.005 268.972 124.925 268.592 124.595C268.422 124.445 267.462 123.235 267.652 122.945C267.842 122.655 268.992 123.225 269.242 123.255C270.052 123.345 269.922 123.655 270.352 124.255C270.766 124.696 271.214 125.103 271.692 125.475C272.162 125.925 272.692 126.095 273.112 126.615C273.322 126.895 273.542 126.865 273.872 126.925C274.412 127.025 274.042 127.105 274.352 127.345C274.662 127.585 274.842 127.345 274.842 127.845C274.842 128.105 275.402 128.065 275.482 128.485C275.562 128.905 275.202 128.885 275.262 129.265C275.322 129.645 275.792 129.585 275.992 129.665C276.192 129.745 276.182 130.395 276.222 130.585C276.292 130.945 276.712 130.925 276.272 131.365C276.376 131.224 276.53 131.128 276.703 131.096C276.876 131.064 277.054 131.1 277.202 131.195L277.322 130.865C277.322 130.795 277.242 130.745 277.192 130.745C277.115 130.765 277.035 130.765 276.958 130.746C276.881 130.726 276.81 130.688 276.752 130.635C276.952 130.385 277.062 129.965 277.332 130.385C277.332 130.295 277.332 130.215 277.332 130.125C277.379 130.118 277.427 130.123 277.473 130.139C277.518 130.154 277.559 130.181 277.592 130.215C280.289 122.411 282.032 114.309 282.782 106.085L281.912 106.405C281.522 106.565 281.602 106.565 281.692 107.005ZM201.522 90.5853C201.706 90.7422 201.922 90.856 202.156 90.9183C202.389 90.9806 202.634 90.9898 202.872 90.9453C203.182 90.9453 203.872 91.0253 203.872 91.3753C203.01 91.4279 202.146 91.3228 201.322 91.0653C201.357 90.8908 201.424 90.7244 201.522 90.5753V90.5853ZM108.152 110.345C107.77 110.225 107.414 110.035 107.102 109.785C107.492 109.205 108.322 109.675 108.802 109.835C108.884 109.943 108.957 110.056 109.022 110.175C108.622 110.045 108.362 110.405 108.152 110.345ZM109.762 108.085C109.042 108.025 108.332 108.195 107.622 108.085C107.712 107.985 108.192 107.625 108.192 107.505C108.192 107.115 107.632 107.265 107.482 107.195C106.912 106.925 106.892 106.315 106.372 106.245C105.852 106.175 105.372 105.795 104.802 105.775C104.482 105.775 104.452 105.535 104.162 105.625C104.035 105.657 103.901 105.65 103.779 105.605C103.656 105.561 103.549 105.481 103.472 105.375C103.556 105.393 103.643 105.393 103.727 105.376C103.811 105.359 103.891 105.325 103.962 105.275C103.012 104.275 101.962 106.465 100.962 105.965C101.442 105.665 101.602 105.085 102.202 104.965C102.875 104.744 103.584 104.649 104.292 104.685C105.587 104.901 106.812 105.425 107.862 106.215L107.932 106.075C108.11 106.308 108.34 106.496 108.604 106.625C108.868 106.753 109.158 106.818 109.452 106.815C109.572 106.815 109.722 107.215 109.982 107.255C110.32 107.351 110.627 107.534 110.872 107.785C110.512 107.865 110.142 107.985 109.762 108.085ZM115.622 109.625C115.062 109.625 114.712 109.785 114.222 109.805C114.122 109.805 114.052 109.535 113.772 109.725C113.492 109.915 113.612 110.445 113.442 110.505C113.052 110.645 113.112 109.985 112.972 109.905C112.832 109.825 112.442 109.905 112.222 109.905C111.502 109.795 111.222 110.105 110.682 109.685C110.482 109.075 112.192 109.765 112.602 109.465C112.182 108.835 112.252 108.615 111.602 108.295C112.252 107.995 112.442 108.205 113.122 108.215C113.332 108.192 113.537 108.138 113.732 108.055C113.952 107.935 114.322 108.175 114.552 108.245C114.782 108.315 114.872 108.115 115.052 108.455C115.232 108.795 115.312 108.915 115.772 109.005C115.962 109.005 116.392 109.305 116.272 109.505C115.962 109.995 116.042 109.655 115.622 109.655V109.625ZM117.432 109.985C117.122 109.215 118.232 109.565 118.642 109.595L118.792 109.755C118.582 110.085 117.652 110.525 117.432 109.985ZM225.892 144.985L225.412 144.515C225.534 145.579 225.411 146.657 225.052 147.665C224.498 149.512 223.945 151.362 223.392 153.215C223.242 153.725 223.082 154.215 222.932 154.735C222.932 154.805 221.722 155.155 221.562 155.235C221.402 155.315 220.202 154.925 220.162 154.675C220.081 154.001 219.958 153.333 219.792 152.675C219.524 152.042 219.481 151.336 219.672 150.675C219.872 150.075 220.572 149.455 220.672 148.825C220.614 148.118 220.459 147.421 220.212 146.755C220.142 146.435 220.432 145.215 220.702 145.175C221.35 145.048 221.975 144.819 222.552 144.495C223.152 144.195 223.362 143.695 223.812 143.175C224.262 142.655 224.632 142.525 224.672 141.605C224.722 140.455 225.492 141.605 225.732 141.985C225.962 143.115 226.312 143.945 225.892 144.945V144.985ZM282.202 108.415C281.872 108.415 281.792 108.845 281.742 109.165C281.692 109.485 281.262 109.515 281.042 109.625C280.822 109.735 281.122 109.875 280.872 109.855C280.69 109.858 280.513 109.806 280.362 109.705C279.882 109.435 279.982 109.315 279.992 108.705C280.582 108.325 280.992 107.545 281.842 108.025V107.805C282.202 107.855 282.272 108.105 282.202 108.415Z" fill="#2FDC92"/>
<path d="M117.432 109.985C117.652 110.525 118.582 110.095 118.792 109.755L118.642 109.595C118.202 109.565 117.122 109.215 117.432 109.985Z" fill="white"/>
<path d="M115.742 109.015C115.282 108.915 115.252 108.915 115.022 108.465C114.792 108.015 114.822 108.355 114.522 108.255C114.222 108.155 113.922 107.945 113.702 108.065C113.507 108.148 113.302 108.202 113.092 108.225C112.412 108.225 112.222 108.005 111.572 108.305C112.252 108.625 112.172 108.845 112.572 109.475C112.162 109.775 110.452 109.085 110.652 109.695C111.232 110.105 111.472 109.805 112.192 109.915C112.402 109.915 112.752 109.825 112.942 109.915C113.132 110.005 113.022 110.655 113.412 110.515C113.582 110.455 113.582 109.845 113.742 109.735C113.902 109.625 114.092 109.815 114.192 109.815C114.692 109.815 115.032 109.635 115.592 109.635C116.152 109.635 115.922 110.005 116.212 109.515C116.362 109.305 115.932 109.055 115.742 109.015Z" fill="white"/>
<path d="M225.722 141.995C225.482 141.665 224.722 140.465 224.662 141.615C224.662 142.535 224.372 142.535 223.802 143.185C223.232 143.835 223.142 144.185 222.542 144.505C221.965 144.829 221.341 145.058 220.692 145.185C220.422 145.185 220.132 146.445 220.202 146.765C220.449 147.431 220.604 148.128 220.662 148.835C220.592 149.465 219.892 150.085 219.662 150.685C219.471 151.346 219.514 152.052 219.782 152.685C219.948 153.343 220.071 154.011 220.152 154.685C220.152 154.935 221.322 155.355 221.552 155.245C221.782 155.135 222.902 154.815 222.922 154.745C223.072 154.235 223.222 153.745 223.382 153.225C223.935 151.379 224.488 149.529 225.042 147.675C225.401 146.667 225.524 145.589 225.402 144.525L225.882 144.995C226.292 143.995 225.952 143.165 225.742 142.095L225.722 141.995Z" fill="white"/>
<path d="M281.832 108.025C280.992 107.555 280.572 108.325 279.982 108.705C279.982 109.305 279.882 109.425 280.352 109.705C280.503 109.806 280.68 109.858 280.862 109.855C281.122 109.855 280.862 109.695 281.032 109.625C281.202 109.555 281.692 109.515 281.732 109.165C281.772 108.815 281.852 108.395 282.192 108.415C282.262 108.095 282.192 107.855 281.872 107.805L281.832 108.025Z" fill="white"/>
<path d="M260.202 101.435C245.582 98.1854 231.132 94.1154 216.332 91.7454C215.152 91.5554 213.982 91.3854 212.802 91.2054C213.012 92.1154 211.912 94.0853 211.672 94.7753C211.554 95.0285 211.385 95.2543 211.175 95.4381C210.964 95.6219 210.718 95.7596 210.452 95.8425C210.185 95.9254 209.904 95.9516 209.627 95.9194C209.35 95.8871 209.082 95.7972 208.842 95.6554C208.052 95.2754 207.982 95.3954 207.182 95.7854C206.952 95.9471 206.684 96.0445 206.404 96.0674C206.125 96.0902 205.844 96.0377 205.592 95.9153L203.522 95.3053C203.372 95.3053 203.032 95.6554 202.942 95.4754C202.762 95.1254 202.752 94.9554 202.402 94.8854L201.102 94.6154C200.832 94.5654 201.022 94.1354 200.812 94.0754C200.042 93.8713 199.226 93.9276 198.492 94.2354C198.302 94.2854 198.082 94.8854 197.972 95.0754C197.862 95.2654 198.252 95.6854 198.122 95.9354C197.582 96.9954 197.122 96.8454 196.312 96.2554C195.722 95.8354 195.112 95.9453 194.482 95.6653C193.852 95.3853 193.962 94.5353 193.222 94.3353L190.352 93.5754C189.792 93.4254 189.252 92.6953 188.802 92.3053C189.082 92.0053 189.912 91.4054 189.692 91.0154C189.232 90.1554 189.312 90.1154 189.692 89.2154C189.142 88.9854 188.642 88.5554 188.102 88.8754C187.499 89.1683 186.814 89.246 186.162 89.0954C185.899 89.0693 185.634 89.0693 185.372 89.0954C185.092 89.1454 184.822 89.4754 184.532 89.4954C184.235 89.4491 183.948 89.3545 183.682 89.2154C183.321 89.194 182.96 89.2311 182.612 89.3254C181.41 89.5189 180.241 89.8825 179.142 90.4054C178.572 90.7101 178.018 91.0439 177.482 91.4054C177.362 91.4754 176.852 91.0953 176.722 91.0253C176.592 90.9553 175.912 91.1554 175.662 91.2054C175.102 91.3254 174.602 90.3854 174.422 90.4354C173.732 90.6354 173.612 91.5953 173.332 92.2753C172.942 93.2753 170.922 93.4554 170.762 94.4654L170.372 97.0454C170.272 97.7354 170.012 97.7454 169.452 98.0954C168.436 98.5607 167.578 99.3111 166.982 100.255L164.282 105.135C164.03 105.464 163.828 105.828 163.682 106.215C163.738 106.899 163.886 107.571 164.122 108.215C164.302 108.995 164.472 109.765 164.642 110.545C164.742 111.025 164.262 111.815 164.102 112.245C164.012 112.495 163.512 113.405 163.652 113.645L164.552 115.205L167.352 120.075C167.83 120.907 168.52 121.597 169.352 122.075L171.552 123.655C171.842 123.865 172.252 124.365 172.622 124.235L174.912 123.425C175.452 123.286 176.023 123.336 176.532 123.565C177.132 123.725 177.372 123.865 177.922 123.565L180.012 122.495C180.382 122.305 183.332 121.845 183.542 122.095L184.992 123.875C185.332 124.295 186.282 123.985 186.762 123.965C187.582 123.915 187.552 123.965 188.082 124.705C188.612 125.445 188.502 125.385 188.402 126.175C188.302 126.965 188.182 128.025 188.082 128.945C188.022 129.405 187.832 129.875 188.082 130.235L189.592 132.235C189.852 132.585 190.452 133.115 190.592 133.565L191.592 138.015C191.912 139.385 192.372 140.435 191.592 141.765C190.985 143.181 190.645 144.696 190.592 146.235C190.592 146.565 190.322 147.165 190.482 147.485L191.552 149.665C192.18 150.699 192.639 151.827 192.912 153.005L193.342 155.795C193.392 156.135 193.342 157.255 193.632 157.495C193.922 157.735 194.632 158.225 194.782 158.705L195.782 161.145C195.932 161.515 196.402 162.265 196.362 162.685C196.252 163.775 196.222 163.765 196.982 164.455C197.202 164.665 197.832 165.455 198.142 165.455L200.072 165.045L204.262 164.165C204.652 164.085 205.262 163.345 205.532 163.085C206.093 162.651 206.63 162.187 207.142 161.695C208.019 160.607 208.827 159.465 209.562 158.275C209.737 157.624 209.805 156.948 209.762 156.275C209.842 155.455 209.692 155.155 210.362 154.835C210.762 154.645 211.942 154.355 212.192 153.965C212.39 153.24 212.475 152.487 212.442 151.735C212.442 151.275 211.852 150.305 211.672 149.895C211.412 149.265 211.912 149.045 212.332 148.555L213.742 146.905C214.102 146.485 215.072 146.255 215.552 146.025C216.041 145.752 216.452 145.358 216.745 144.879C217.037 144.401 217.202 143.856 217.222 143.295C217.152 141.855 217.442 140.065 216.592 138.915C216.358 138.693 216.185 138.414 216.089 138.107C215.993 137.799 215.976 137.471 216.042 137.155C216.121 136.796 216.116 136.423 216.028 136.066C215.939 135.708 215.77 135.376 215.532 135.095C215.202 134.605 217.222 131.845 217.532 131.315C218.952 128.885 221.152 127.045 223.042 125.065C223.704 124.241 224.255 123.333 224.682 122.365C225.425 121.271 226.024 120.084 226.462 118.835C226.532 118.515 227.082 117.015 226.932 116.755C226.692 116.335 225.852 116.685 225.572 116.755L220.882 118.015C220.422 118.135 219.802 116.955 219.232 116.775C220.082 115.955 218.982 115.265 218.442 114.635L217.442 113.495C217.232 113.245 216.382 113.295 216.282 112.995C216.04 112.025 215.705 111.081 215.282 110.175C214.962 109.804 214.604 109.469 214.212 109.175C213.942 108.915 213.982 108.245 213.932 107.895C213.832 107.285 213.742 106.685 213.652 106.085C213.592 105.735 213.042 105.345 212.822 105.085C212.302 104.525 212.432 103.725 212.082 103.015L210.332 99.4354C210.042 98.8554 209.152 97.7754 209.652 97.1354C210.038 98.0055 210.565 98.8062 211.212 99.5054L211.832 97.6154C211.762 98.1454 211.682 98.6753 211.622 99.1953C212.182 99.0453 212.362 99.7853 212.622 100.195L214.052 102.765C214.272 103.165 214.702 103.345 214.882 103.705C215.258 104.298 215.547 104.941 215.742 105.615C215.822 106.065 215.822 107.365 216.242 107.525C216.982 107.805 217.052 107.935 217.472 108.655C218.246 109.719 218.809 110.92 219.132 112.195L219.632 114.895C219.802 115.785 219.872 115.595 220.732 115.595C221.282 115.595 221.392 115.015 221.892 114.885C222.572 114.705 223.252 114.475 223.952 114.345C224.282 114.285 224.532 114.345 224.722 114.015C224.912 113.685 224.912 113.655 225.152 113.575L227.552 112.715C228.002 112.555 227.932 111.905 228.412 111.715L229.472 111.255C229.712 111.155 230.072 111.445 230.292 111.345C230.512 111.245 230.562 110.405 230.842 110.265L232.292 109.575C232.762 109.345 232.972 109.405 232.972 108.845C232.974 108.313 233.112 107.79 233.372 107.325C233.372 107.475 233.502 107.615 233.532 107.765C233.832 107.405 234.822 106.595 234.842 106.125C234.862 105.655 235.062 105.325 234.602 105.245C234.342 105.245 234.132 104.545 234.002 104.305C233.872 104.065 233.472 104.095 233.162 103.955C232.809 103.762 232.474 103.538 232.162 103.285C231.632 102.925 231.792 101.865 231.732 101.215C231.201 102.001 230.572 102.717 229.862 103.345C228.992 103.647 228.069 103.763 227.152 103.685C227.238 102.854 227.111 102.014 226.782 101.245C226.702 101.765 226.622 102.245 226.532 102.785C225.932 101.645 225.372 100.485 224.712 99.3854C224.522 99.0753 223.652 98.0154 223.892 97.7154C224.622 96.8554 224.612 96.8154 225.672 96.9654C226.282 97.0554 226.392 97.8054 226.672 98.3854C226.761 98.7024 226.928 98.9924 227.156 99.2297C227.385 99.467 227.668 99.6441 227.982 99.7454C228.442 99.9554 228.752 100.575 229.252 100.655C229.903 100.855 230.6 100.855 231.252 100.655C232.162 100.325 232.052 100.585 232.512 101.505C232.772 102.015 233.352 101.965 233.852 102.075C234.977 102.465 236.16 102.664 237.352 102.665C237.882 102.595 241.042 101.895 241.252 102.345C241.462 102.795 241.692 103.735 242.072 103.955C242.642 104.362 243.26 104.698 243.912 104.955C244.164 104.966 244.416 104.942 244.662 104.885C244.592 105.465 243.662 105.405 243.292 105.505C243.702 105.945 244.382 107.065 244.962 107.085C245.542 107.105 245.522 107.165 245.842 106.725L246.782 105.425C246.828 106.912 246.875 108.402 246.922 109.895C246.893 110.419 246.909 110.944 246.972 111.465C247.194 112.158 247.482 112.828 247.832 113.465C248.832 115.795 249.832 118.105 251.052 120.355L252.332 119.515C252.732 119.255 252.642 118.745 252.702 118.255C253.172 118.755 253.422 118.855 253.392 119.555C253.361 120.253 253.381 120.951 253.452 121.645C253.602 123.265 255.632 122.215 255.122 121.015C254.902 120.375 254.581 119.774 254.172 119.235C253.725 118.724 253.434 118.096 253.332 117.425C253.192 116.905 253.602 116.095 253.742 115.585C253.827 114.921 253.827 114.249 253.742 113.585C253.742 112.915 253.522 112.505 254.082 112.225C254.619 112.051 255.128 111.799 255.592 111.475L258.742 108.235L259.852 107.095C259.992 106.955 259.772 106.445 259.852 106.295C259.932 106.145 260.402 106.215 260.502 106.205L262.762 105.895C263.192 105.835 263.702 105.285 264.062 105.035C264.307 105.939 264.762 106.772 265.392 107.465C266.101 108.171 266.615 109.05 266.882 110.015C267.002 110.295 266.752 111.095 266.712 111.405C266.612 112.115 266.562 112.055 267.212 112.205C267.862 112.355 267.792 112.355 268.212 111.855L269.212 110.665C269.77 112.133 270.143 113.665 270.322 115.225C270.444 116.076 270.5 116.936 270.492 117.795C270.492 118.245 270.062 119.795 270.332 120.135L272.152 122.075C272.531 122.814 272.794 123.607 272.932 124.425C273.212 125.275 273.252 125.565 273.932 126.075C274.502 126.659 275.216 127.083 276.002 127.305C275.734 126.748 275.503 126.173 275.312 125.585C275.172 124.975 275.412 124.165 275.192 123.585C274.916 123.102 274.545 122.681 274.102 122.345C273.732 122.055 272.772 121.615 272.632 121.125C272.542 120.835 272.232 119.225 271.982 119.235C271.492 119.235 271.492 119.345 271.452 118.815C271.394 118.542 271.394 118.259 271.452 117.985C271.738 117.389 271.94 116.757 272.052 116.105C272.132 115.015 271.952 114.875 272.962 114.835L272.862 115.585C273.333 115.616 273.791 115.75 274.204 115.979C274.617 116.207 274.975 116.523 275.252 116.905L276.522 118.285C276.842 118.615 276.232 119.285 276.662 119.745C277.977 118.746 279.239 117.678 280.442 116.545C280.882 116.135 280.552 114.755 280.522 114.175C280.522 113.175 280.152 112.965 279.572 112.175C278.992 111.385 278.572 111.005 278.212 110.355L277.362 109.005C277.262 108.845 277.642 108.005 277.692 107.835C277.882 107.215 279.022 106.645 279.502 106.275C279.816 106.096 280.18 106.021 280.539 106.062C280.899 106.104 281.236 106.259 281.502 106.505C281.342 106.505 281.202 106.665 281.032 106.705C281.092 106.875 281.242 107.525 281.382 107.595C281.882 107.855 281.872 107.275 281.812 106.995C281.732 106.565 281.642 106.555 282.012 106.425L282.882 106.105C282.882 105.955 283.312 96.0354 283.322 95.8854C275.542 94.9153 267.542 103.075 260.202 101.435Z" fill="white"/>
<path d="M171.272 87.3453C171.272 87.3453 171.272 87.3453 171.272 87.4253C171.272 87.5053 171.272 87.8253 171.272 88.0153C171.273 88.3701 171.226 88.7234 171.132 89.0653C171.562 88.7453 171.912 89.1553 172.382 88.8753C172.852 88.5953 173.202 89.3353 173.672 89.1053C173.192 89.4453 173.882 90.3053 174.272 90.1753C174.662 90.0453 175.022 89.3753 175.562 89.3953C176.171 89.4377 176.782 89.4377 177.392 89.3953C177.582 89.3953 177.812 88.8353 177.922 88.6653C178.032 88.4953 178.532 88.4553 178.742 88.3953C178.642 88.1853 178.802 87.9353 178.992 87.7053C176.465 87.5653 173.892 87.4453 171.272 87.3453Z" fill="white"/>
<path d="M110.002 107.215C109.732 107.215 109.592 106.765 109.472 106.775C109.178 106.778 108.888 106.713 108.624 106.585C108.361 106.456 108.13 106.268 107.952 106.035L107.882 106.175C106.828 105.388 105.6 104.866 104.302 104.655C103.594 104.619 102.885 104.714 102.212 104.935C101.612 105.085 101.452 105.665 100.972 105.935C101.972 106.435 102.972 104.285 103.972 105.245C103.901 105.295 103.821 105.329 103.737 105.346C103.653 105.363 103.566 105.363 103.482 105.345C103.559 105.451 103.666 105.531 103.789 105.575C103.912 105.62 104.045 105.627 104.172 105.595C104.472 105.505 104.502 105.735 104.812 105.745C105.332 105.745 105.812 106.135 106.382 106.215C106.952 106.295 106.912 106.895 107.492 107.165C107.642 107.235 108.202 107.085 108.202 107.475C108.202 107.605 107.722 107.965 107.632 108.055C108.332 108.185 109.052 108.005 109.772 108.055C110.152 107.955 110.522 107.835 110.902 107.725C110.652 107.479 110.341 107.303 110.002 107.215Z" fill="white"/>
<path d="M107.102 109.785C107.414 110.035 107.77 110.225 108.152 110.345C108.362 110.405 108.622 110.055 109.012 110.185C108.947 110.066 108.874 109.953 108.792 109.845C108.312 109.655 107.482 109.205 107.102 109.785Z" fill="white"/>
<path d="M276.292 131.395C276.722 130.965 276.292 130.985 276.242 130.615C276.242 130.425 276.182 129.775 276.012 129.695C275.842 129.615 275.322 129.535 275.282 129.295C275.242 129.055 275.562 128.805 275.502 128.515C275.442 128.225 274.862 128.135 274.862 127.875C274.862 127.395 274.682 127.615 274.372 127.375C274.062 127.135 274.432 127.055 273.892 126.955C273.562 126.895 273.332 126.955 273.132 126.645C272.752 126.125 272.132 125.955 271.712 125.505C271.235 125.133 270.787 124.726 270.372 124.285C269.942 123.675 270.072 123.365 269.262 123.285C269.012 123.285 267.802 122.795 267.672 122.975C267.542 123.155 268.442 124.475 268.612 124.625C268.982 124.955 269.792 125.115 269.822 125.805C269.852 126.495 270.752 126.425 270.942 127.135L271.282 128.395C271.362 128.685 271.632 128.585 271.812 128.775C272.238 129.438 272.574 130.154 272.812 130.905C273.074 131.398 273.411 131.847 273.812 132.235C274.512 133.005 275.232 133.765 276.022 134.505C276.442 133.435 276.852 132.345 277.242 131.255C277.096 131.151 276.916 131.107 276.738 131.133C276.561 131.159 276.401 131.253 276.292 131.395Z" fill="white"/>
<path d="M203.852 91.3653C203.852 91.0153 203.182 90.8953 202.852 90.9353C202.614 90.9798 202.37 90.9706 202.136 90.9083C201.902 90.846 201.686 90.7323 201.502 90.5753C201.399 90.7199 201.324 90.8828 201.282 91.0553C202.112 91.3153 202.983 91.4204 203.852 91.3653Z" fill="white"/>
<path d="M277.352 130.415C277.082 129.995 276.962 130.415 276.772 130.665C276.83 130.718 276.901 130.756 276.978 130.776C277.055 130.795 277.135 130.795 277.212 130.775C277.212 130.775 277.302 130.825 277.342 130.895L277.572 130.245C277.539 130.211 277.498 130.184 277.453 130.169C277.407 130.153 277.359 130.148 277.312 130.155C277.312 130.245 277.332 130.335 277.352 130.415Z" fill="white"/>
<path d="M182.832 85.9753C182.492 85.3353 182.272 85.6553 181.772 85.9753L182.332 86.4253L182.832 85.9753Z" fill="white"/>
<path d="M146.582 133.855C146.582 133.725 145.382 133.705 145.212 133.695C144.282 132.843 143.255 132.105 142.152 131.495L138.362 130.125L134.572 128.755C134.352 128.675 134.032 128.065 133.892 127.875L132.122 125.555C131.542 124.795 130.812 123.255 129.892 123.025C128.972 122.795 127.212 122.765 126.442 122.025L122.762 118.495C122.066 117.999 121.245 117.708 120.392 117.655L115.672 116.555C115.072 116.415 113.972 115.885 113.362 116.105L111.362 116.825C111.122 116.915 110.202 117.065 110.062 117.305C109.592 118.105 108.372 119.435 108.412 120.425C108.002 119.818 107.41 119.356 106.722 119.105C105.902 118.855 105.502 119.175 104.722 119.495C103.462 120.015 101.772 117.745 101.952 116.355C101.952 116.075 102.232 115.815 102.282 115.515C102.362 115.005 102.442 114.515 102.522 113.975C102.577 113.635 102.505 113.287 102.321 112.996C102.137 112.705 101.853 112.491 101.522 112.395C101.15 112.293 100.767 112.239 100.382 112.235C100.072 112.185 99.8417 112.465 99.5217 112.415C98.7644 112.424 98.0079 112.364 97.2617 112.235C97.4917 112.025 98.0517 111.405 97.8917 111.065C97.7317 110.725 98.3117 109.695 97.7917 109.675C97.864 109.512 97.9546 109.358 98.0617 109.215C98.0356 109.339 98.0401 109.468 98.075 109.59C98.1098 109.712 98.1739 109.824 98.2617 109.915C98.3321 109.502 98.4426 109.097 98.5917 108.705L98.4317 108.815L98.3817 108.745C98.4917 108.675 98.5717 108.545 98.6717 108.455C98.3917 108.455 98.4617 108.345 98.3417 108.275C98.5817 108.275 99.0317 107.275 99.1717 106.935C99.5217 106.095 98.4117 106.325 98.0217 106.275C97.5029 106.299 96.9906 106.4 96.5017 106.575C95.8117 106.845 95.8717 107.575 95.6817 108.265C95.5938 108.573 95.3987 108.839 95.1317 109.015C95.0117 109.125 95.2117 109.325 95.1317 109.395C94.9972 109.48 94.8528 109.547 94.7017 109.595C94.5817 109.655 94.3817 109.335 94.1417 109.355C93.8292 109.377 93.5222 109.448 93.2317 109.565L92.2317 109.945C92.0817 109.995 91.8217 109.575 91.6517 109.525C90.8317 109.285 90.6517 108.755 90.1417 108.005C89.3741 106.844 89.0023 105.465 89.0817 104.075C89.1387 103.459 89.28 102.853 89.5017 102.275C89.6142 102.02 89.6916 101.751 89.7317 101.475C89.7317 101.145 89.2717 100.815 89.2817 100.475C89.2817 99.4053 91.0617 98.0953 91.8117 97.7853C92.2617 97.5953 93.0117 97.0553 93.4817 97.2353C93.7317 97.3353 94.1017 97.5753 94.3617 97.4853C94.8217 97.3253 95.0017 97.6053 95.3617 97.9053C95.7217 98.2053 95.8817 97.6353 96.1117 98.1253C96.1117 97.9353 96.2217 97.8553 96.1717 97.6153C96.4217 97.7753 96.9317 97.8953 96.8017 98.2453C96.8493 98.2593 96.8998 98.2605 96.948 98.2486C96.9962 98.2367 97.0404 98.2122 97.076 98.1776C97.1117 98.143 97.1374 98.0995 97.1507 98.0517C97.164 98.0038 97.1643 97.9533 97.1517 97.9053C97.1517 97.8153 96.6117 97.6353 96.5117 97.5753C97.5117 97.1153 96.1917 96.9553 95.8417 96.9253C96.3317 96.5353 98.0017 97.0753 98.1017 96.3253C98.2517 97.1853 99.1017 96.5153 99.6117 96.6553C99.9324 96.8089 100.232 97.0039 100.502 97.2353C100.792 97.4253 101.122 97.2353 101.432 97.0953C102.012 96.9053 102.282 97.5753 102.772 97.9153C103.262 98.2553 102.772 99.0953 102.982 99.6553L103.182 99.4853C103.072 99.9153 103.252 100.135 103.422 100.485C103.588 100.806 103.725 101.14 103.832 101.485C103.832 101.485 104.392 102.025 104.492 102.155C104.792 102.585 105.012 102.235 105.272 101.975C105.532 101.715 105.492 100.425 105.352 99.9753C105.106 99.1084 104.792 98.2624 104.412 97.4453C104.136 96.8712 104.086 96.2145 104.272 95.6053C104.548 94.8079 105.126 94.1508 105.882 93.7753C106.141 93.5699 106.361 93.3192 106.532 93.0353C106.752 92.7553 107.172 92.8353 107.302 92.6553C107.432 92.4753 107.702 91.8553 107.942 91.7153C108.182 91.5753 108.272 91.8953 108.432 91.8153L109.022 91.4953C108.742 91.3253 108.492 91.7053 108.322 91.2853C108.522 91.2853 108.602 91.1853 108.762 91.1253C108.652 91.0653 108.572 90.9653 108.462 90.9053C108.652 90.9053 109.372 90.9053 109.412 90.6453C109.502 90.1253 108.902 90.2453 108.552 90.2453L108.832 90.1653C98.2908 91.644 87.8535 93.785 77.5817 96.5753V96.6553C77.5817 97.7853 77.5817 98.9053 77.6417 100.035L78.0217 100.525C78.1217 100.655 78.4617 100.955 78.4217 101.135C78.3817 101.315 78.2117 101.705 78.3517 101.835L80.1917 103.535C80.5381 103.858 80.8407 104.224 81.0917 104.625C81.3417 105.005 82.2417 105.965 82.0917 106.445C81.8717 107.185 81.5617 107.505 82.0917 108.035L83.7917 109.765C84.0997 109.959 84.4376 110.101 84.7917 110.185L87.4117 111.245C88.4917 111.685 89.6517 112.505 90.7817 112.155C91.2817 111.995 91.8717 111.565 92.2917 111.975L94.2017 113.855C94.9317 114.565 96.4617 114.635 97.3817 114.855C98.5717 115.195 99.0917 116.065 99.9417 117.045C100.282 117.435 100.142 118.045 100.412 118.485C100.682 118.925 101.612 119.395 102.062 119.735L102.722 120.235C102.852 120.325 102.992 120.085 103.202 120.125C103.602 120.205 104.322 120.925 104.472 120.495C104.802 121.285 104.772 121.195 105.472 120.885C105.392 120.735 105.022 120.305 105.152 120.185C105.373 119.956 105.621 119.754 105.892 119.585C106.262 119.385 106.262 119.355 106.622 119.585C106.982 119.815 107.162 119.795 107.002 120.415C106.842 121.035 108.002 121.415 107.902 121.895C107.902 122.085 107.992 122.635 107.952 122.665C107.672 122.945 107.902 123.155 107.952 123.535C108.192 125.215 107.392 125.905 106.462 127.105L105.202 128.735C104.969 129.293 104.824 129.883 104.772 130.485C104.562 131.365 103.772 132.915 104.252 133.765L106.442 137.865L109.102 142.865C109.384 143.596 109.861 144.236 110.482 144.715L112.642 146.215C113.012 146.475 113.842 146.825 114.092 147.215C114.261 147.834 114.339 148.474 114.322 149.115C114.468 149.824 114.558 150.543 114.592 151.265C114.491 152.108 114.334 152.943 114.122 153.765L113.062 159.365L111.312 168.585C111.082 169.815 110.932 171.085 110.812 172.365C113.012 174.365 115.295 176.285 117.662 178.125C117.729 178.078 117.803 178.041 117.882 178.015C118.522 177.865 118.622 177.925 118.882 177.305L119.752 175.425C119.902 175.095 119.342 174.525 119.262 174.195C119.206 173.67 119.206 173.14 119.262 172.615C120.262 173.095 120.752 173.365 121.662 172.725C121.862 172.585 121.662 172.025 121.832 171.725C122.042 171.175 121.902 170.935 121.722 170.355C122.457 170.567 123.237 170.567 123.972 170.355C124.902 170.105 125.682 170.125 126.262 169.275C126.462 168.985 126.982 168.465 127.052 168.105C127.02 167.569 126.912 167.041 126.732 166.535C126.572 165.715 124.992 165.615 125.242 164.665C125.672 164.795 128.422 165.985 128.632 165.735L131.262 162.355L134.132 158.665C134.362 158.375 134.302 157.745 134.342 157.375C134.382 157.005 134.342 155.375 134.602 155.185L138.062 152.805C138.442 152.545 139.492 152.705 139.942 152.675C140.392 152.645 140.632 151.985 140.942 151.585C141.542 150.665 142.742 149.475 142.822 148.315C142.942 146.565 143.072 144.815 143.202 143.065C143.336 142.425 143.648 141.836 144.102 141.365L146.572 137.805C147.242 136.805 147.212 136.855 146.932 135.635C146.842 134.985 146.712 134.425 146.582 133.855Z" fill="white"/>
<path d="M78.2916 104.285C78.2916 103.995 78.0416 103.675 77.8016 103.465C77.8016 103.875 77.8516 104.295 77.8816 104.705C78.0616 104.725 78.2016 104.595 78.2916 104.285Z" fill="white"/>
<path d="M187.472 85.1153C187.472 85.2553 187.252 85.5153 187.222 85.6653C187.192 85.8153 187.452 85.8653 187.442 85.9453C187.372 86.3753 187.012 86.4153 187.362 86.7553C187.712 87.0953 187.922 87.0453 187.962 86.6053C187.962 86.3553 188.362 86.6053 188.412 86.1353C188.462 85.6653 188.532 85.1953 188.592 84.7153C188.712 83.7153 187.592 84.3253 187.352 84.5053L187.072 84.3953C186.892 84.9153 187.402 84.7653 187.472 85.1153Z" fill="white"/>
<g style="mix-blend-mode:multiply" opacity="0.6">
<path d="M207.652 171.255C166.282 163.255 137.352 127.835 126.772 88.5253L126.682 88.1853C109.96 89.4556 93.3939 92.2913 77.2017 96.6553C77.2133 116.972 83.2462 136.829 94.5382 153.718C105.83 170.607 121.875 183.77 140.645 191.544C159.415 199.319 180.068 201.355 199.995 197.397C219.921 193.439 238.228 183.663 252.602 169.305C237.967 173.401 222.586 174.068 207.652 171.255Z" fill="#81DEA6"/>
</g>
<path d="M180.392 137.085C237.161 137.085 283.182 117.771 283.182 93.9453C283.182 70.1197 237.161 50.8053 180.392 50.8053C123.622 50.8053 77.6017 70.1197 77.6017 93.9453C77.6017 117.771 123.622 137.085 180.392 137.085Z" fill="#CFFFE2"/>
<path style="mix-blend-mode:multiply" opacity="0.68" d="M159.572 79.8353C163.202 77.6953 163.852 77.1453 167.322 74.7453L164.322 69.3253L151.892 75.1953C154.012 77.0253 157.372 78.1053 159.572 79.8353Z" fill="url(#paint1_linear)"/>
<path d="M165.582 41.8253H163.912C162.951 41.8253 162.172 42.6043 162.172 43.5653V74.2053C162.172 75.1663 162.951 75.9453 163.912 75.9453H165.582C166.543 75.9453 167.322 75.1663 167.322 74.2053V43.5653C167.322 42.6043 166.543 41.8253 165.582 41.8253Z" fill="#4D4D4D"/>
<path d="M177.452 48.8053C176.272 43.6553 171.002 20.9653 161.652 27.6553C156.862 31.0753 155.512 36.4153 153.602 41.6553C151.854 45.9628 150.84 50.5327 150.602 55.1753C150.452 64.6153 160.052 65.7653 167.402 65.7353C171.642 65.7353 177.682 63.2153 178.672 58.6153C179.272 55.8453 178.252 52.6153 177.672 49.8553L177.452 48.8053Z" fill="#81DEA6"/>
<path d="M177.902 49.8053L177.682 48.8053C176.632 44.2553 172.392 25.9853 164.962 26.4353C167.172 36.0653 170.422 46.2353 168.682 56.0953C168.127 59.5364 166.782 62.8019 164.752 65.6353C165.752 65.6353 166.752 65.6953 167.652 65.6953C171.892 65.6953 177.932 63.1753 178.922 58.5753C179.512 55.7953 178.492 52.5253 177.902 49.8053Z" fill="#49C179"/>
<path style="mix-blend-mode:multiply" opacity="0.68" d="M100.642 93.7253C104.272 91.5853 104.922 91.0353 108.392 88.6353L105.392 83.2153L92.9617 89.0853C95.0817 90.9053 98.4517 91.9953 100.642 93.7253Z" fill="url(#paint2_linear)"/>
<path d="M106.662 55.7053H104.992C104.031 55.7053 103.252 56.4843 103.252 57.4453V88.0853C103.252 89.0463 104.031 89.8253 104.992 89.8253H106.662C107.623 89.8253 108.402 89.0463 108.402 88.0853V57.4453C108.402 56.4843 107.623 55.7053 106.662 55.7053Z" fill="#4D4D4D"/>
<path d="M118.532 62.6553C117.342 57.5053 112.072 34.8153 102.732 41.4853C97.9417 44.9053 96.5917 50.2453 94.6817 55.4853C92.9336 59.7928 91.9196 64.3627 91.6817 69.0053C91.5317 78.4453 101.132 79.5953 108.482 79.5653C112.722 79.5653 118.762 77.0453 119.752 72.4453C120.352 69.6753 119.332 66.4453 118.752 63.6853L118.532 62.6553Z" fill="#81DEA6"/>
<path d="M118.982 63.6553L118.762 62.6553C117.712 58.1053 113.472 39.8353 106.042 40.2853C108.252 49.9153 111.502 60.0853 109.762 69.9453C109.207 73.3864 107.862 76.6519 105.832 79.4853C106.832 79.4853 107.832 79.5453 108.732 79.5453C112.972 79.5453 119.012 77.0253 120.002 72.4253C120.582 69.6553 119.572 66.4053 118.982 63.6553Z" fill="#49C179"/>
<path style="mix-blend-mode:multiply" opacity="0.68" d="M128.702 126.075C133.332 123.345 134.152 122.645 138.582 119.585L134.732 112.655L118.882 120.145C121.602 122.475 125.902 123.865 128.702 126.075Z" fill="url(#paint3_linear)"/>
<path d="M136.832 77.6053H133.752C132.791 77.6053 132.012 78.3844 132.012 79.3454V119.365C132.012 120.326 132.791 121.105 133.752 121.105H136.832C137.793 121.105 138.572 120.326 138.572 119.365V79.3454C138.572 78.3844 137.793 77.6053 136.832 77.6053Z" fill="#4D4D4D"/>
<path d="M151.502 86.5053C149.992 79.9453 143.272 51.0153 131.352 59.5053C125.252 63.8653 123.522 70.6653 121.082 77.3253C119.082 82.8353 117.382 88.6453 117.292 94.5553C117.102 106.555 129.342 108.065 138.712 108.015C144.112 108.015 151.822 104.805 153.082 98.9353C153.842 95.3953 152.542 91.2253 151.792 87.7653C151.692 87.352 151.595 86.932 151.502 86.5053Z" fill="#81DEA6"/>
<path d="M152.072 87.7752C151.978 87.3486 151.882 86.9219 151.782 86.4953C150.442 80.6853 145.032 57.4053 135.562 57.9753C138.372 70.2553 142.562 83.2253 140.312 95.7853C139.607 100.171 137.896 104.333 135.312 107.945C136.572 108.005 137.812 108.025 139.012 108.025C144.412 108.025 152.122 104.815 153.382 98.9452C154.122 95.4152 152.822 91.2453 152.072 87.7752Z" fill="#49C179"/>
<path style="mix-blend-mode:multiply" opacity="0.68" d="M239.562 92.8553C244.452 89.9753 245.322 89.2353 249.992 86.0053L245.932 78.7053L229.202 86.6553C232.062 89.0553 236.602 90.5153 239.562 92.8553Z" fill="url(#paint4_linear)"/>
<path d="M248.252 41.6853H244.802C243.841 41.6853 243.062 42.4643 243.062 43.4253V85.8653C243.062 86.8263 243.841 87.6053 244.802 87.6053H248.252C249.213 87.6053 249.992 86.8263 249.992 85.8653V43.4253C249.992 42.4643 249.213 41.6853 248.252 41.6853Z" fill="#4D4D4D"/>
<path d="M263.632 51.0753C262.032 44.1453 254.942 13.6053 242.362 22.5853C235.922 27.1853 234.102 34.3753 231.522 41.3953C229.382 47.2153 227.612 53.3453 227.522 59.5853C227.322 72.2953 240.242 73.8453 250.132 73.7953C255.832 73.7953 263.972 70.4053 265.302 64.2153C266.102 60.4853 264.742 56.0753 263.942 52.4153C263.835 51.9753 263.732 51.5286 263.632 51.0753Z" fill="#81DEA6"/>
<path d="M264.202 52.4253C264.102 51.9719 264.002 51.5219 263.902 51.0753C262.492 44.9453 256.772 20.3653 246.772 20.9653C249.772 33.9653 254.122 47.6153 251.772 60.8853C251.025 65.5167 249.214 69.9118 246.482 73.7253C247.812 73.7953 249.122 73.8153 250.382 73.8053C256.082 73.8053 264.222 70.4153 265.552 64.2253C266.402 60.4853 265.032 56.0853 264.202 52.4253Z" fill="#49C179"/>
<path style="mix-blend-mode:multiply" opacity="0.68" d="M204.112 79.1853C207.742 77.0453 208.392 76.4953 211.862 74.0953L208.862 68.6753L196.432 74.5453C198.542 76.3653 201.912 77.4453 204.112 79.1853Z" fill="url(#paint5_linear)"/>
<path d="M210.122 41.1653H208.452C207.491 41.1653 206.712 41.9443 206.712 42.9053V73.5453C206.712 74.5063 207.491 75.2853 208.452 75.2853H210.122C211.083 75.2853 211.862 74.5063 211.862 73.5453V42.9053C211.862 41.9443 211.083 41.1653 210.122 41.1653Z" fill="#4D4D4D"/>
<path d="M221.992 48.1453C220.802 42.9953 215.532 20.3053 206.192 26.9753C201.402 30.3953 200.052 35.7353 198.142 40.9753C196.394 45.2828 195.38 49.8527 195.142 54.4953C194.992 63.9353 204.592 65.0853 211.942 65.0553C216.182 65.0553 222.222 62.5353 223.212 57.9353C223.812 55.1653 222.792 51.9353 222.212 49.1753L221.992 48.1453Z" fill="#81DEA6"/>
<path d="M222.442 49.1453L222.222 48.1453C221.172 43.5953 216.932 25.3253 209.502 25.7753C211.712 35.4053 214.962 45.5753 213.222 55.4353C212.667 58.8763 211.322 62.1419 209.292 64.9753C210.292 64.9753 211.292 65.0353 212.192 65.0353C216.432 65.0353 222.472 62.5153 223.462 57.9153C224.052 55.1353 223.032 51.8653 222.442 49.1453Z" fill="#49C179"/>
<path style="mix-blend-mode:multiply" opacity="0.68" d="M213.082 126.065C216.712 123.925 217.362 123.375 220.832 120.975L217.832 115.555L205.402 121.425C207.522 123.245 210.892 124.325 213.082 126.065Z" fill="url(#paint6_linear)"/>
<path d="M219.102 88.0453H217.432C216.471 88.0453 215.692 88.8243 215.692 89.7853V120.425C215.692 121.386 216.471 122.165 217.432 122.165H219.102C220.063 122.165 220.842 121.386 220.842 120.425V89.7853C220.842 88.8243 220.063 88.0453 219.102 88.0453Z" fill="#4D4D4D"/>
<path d="M230.972 95.0253C229.782 89.8753 224.512 67.1853 215.172 73.8553C210.382 77.2753 209.032 82.6153 207.122 87.8553C205.374 92.1628 204.36 96.7327 204.122 101.375C203.972 110.815 213.572 111.965 220.922 111.935C225.162 111.935 231.202 109.415 232.192 104.815C232.792 102.045 231.772 98.8153 231.192 96.0553L230.972 95.0253Z" fill="#81DEA6"/>
<path d="M231.412 96.0253L231.192 95.0253C230.142 90.4753 225.902 72.2053 218.472 72.6553C220.682 82.2853 223.932 92.4553 222.192 102.315C221.637 105.756 220.292 109.022 218.262 111.855C219.262 111.855 220.262 111.915 221.162 111.915C225.402 111.915 231.442 109.395 232.432 104.795C233.022 102.015 232.012 98.7453 231.412 96.0253Z" fill="#49C179"/>
<path d="M268.142 64.1354C268.142 64.1354 260.142 64.8054 258.432 64.1354C256.722 63.4654 251.432 61.5254 251.052 63.0754C250.672 64.6254 253.722 65.4054 253.722 65.4054C253.722 65.4054 248.292 66.7654 246.782 67.2154C245.272 67.6654 246.122 69.0754 247.342 68.8654C247.342 68.8654 244.192 70.2854 245.272 71.0054C245.616 71.2132 246 71.3496 246.398 71.4063C246.797 71.4629 247.203 71.4388 247.592 71.3354C247.592 71.3354 246.162 72.5054 247.792 73.2254C249.307 73.0958 250.798 72.7593 252.222 72.2254C252.222 72.2254 250.392 73.7854 250.982 74.2254C251.572 74.6654 251.402 75.0754 256.862 72.2254C256.862 72.2254 268.262 69.6854 270.802 69.2254" fill="#FFDCCD"/>
<path opacity="0.41" d="M308.202 143.255C314.812 145.985 331.862 154.525 342.202 160.255C338.65 162.393 334.951 164.274 331.132 165.885C327.322 167.645 323.992 170.125 320.412 172.285C314.722 175.715 308.292 178.035 303.172 182.285C295.932 176.155 283.892 166.995 277.352 161.815C277.122 161.815 274.882 159.615 275.052 158.265C282.202 154.835 306.752 144.385 308.202 143.255Z" fill="url(#paint7_linear)"/>
<path d="M316.432 153.015L318.012 152.015V134.225L310.202 133.945C310.202 133.945 310.052 141.535 308.202 143.265C306.352 144.995 301.792 143.755 301.342 143.905C300.892 144.055 297.822 143.165 296.442 144.585C295.062 146.005 301.122 150.105 304.342 150.855C306.547 151.3 308.809 151.385 311.042 151.105C311.042 151.105 311.742 146.555 312.862 147.005C313.982 147.455 314.062 152.265 314.062 152.265L316.432 153.015Z" fill="#2FDC92"/>
<path d="M324.102 84.2054C323.992 72.4454 323.102 61.5854 313.682 53.3854L313.092 55.5354C313.092 55.4554 313.092 55.3754 313.092 55.2954C313.002 54.2954 311.292 53.8354 311.092 55.0254C311.096 55.1153 311.096 55.2054 311.092 55.2954V55.3554C311.092 55.7454 311.002 56.1454 310.982 56.5354C310.884 56.4286 310.765 56.3442 310.632 56.288C310.498 56.2319 310.355 56.2053 310.21 56.21C310.066 56.2148 309.924 56.2508 309.795 56.3156C309.665 56.3804 309.552 56.4724 309.462 56.5854C307.622 57.1754 306.882 59.8354 306.872 61.4954C306.872 61.7606 306.977 62.0149 307.164 62.2025C307.352 62.39 307.606 62.4954 307.872 62.4954C308.137 62.4954 308.391 62.39 308.579 62.2025C308.766 62.0149 308.872 61.7606 308.872 61.4954C308.808 60.7395 308.986 59.9829 309.382 59.3354L309.562 58.8254V58.8854V59.0054C309.488 59.5019 309.512 60.008 309.632 60.4954C309.67 60.6211 309.734 60.738 309.818 60.8392C309.902 60.9405 310.005 61.0241 310.122 61.0854C310.212 61.4654 310.312 61.8454 310.412 62.2254L307.712 62.9954L303.852 87.8354C303.852 87.8354 304.372 141.955 306.012 142.425C317.302 145.705 321.952 140.265 321.952 140.265C322.722 121.655 324.272 102.855 324.102 84.2054Z" fill="#CECECE"/>
<path d="M295.032 166.745L296.612 165.745V147.955L288.802 147.675C288.802 147.675 288.652 155.265 286.802 156.995C284.952 158.725 280.392 157.485 279.942 157.635C279.492 157.785 276.422 156.895 275.042 158.315C273.662 159.735 279.722 163.835 282.942 164.585C285.147 165.03 287.41 165.115 289.642 164.835C289.642 164.835 290.342 160.285 291.462 160.735C292.582 161.185 292.662 165.995 292.662 165.995L295.032 166.745Z" fill="#2FDC92"/>
<path d="M297.832 61.4253C297.832 61.4253 290.632 88.0053 287.702 111.795C287.002 117.505 281.092 151.565 281.092 151.565C281.092 151.565 290.832 155.125 299.492 152.335C299.492 152.335 309.792 108.875 310.232 108.025C310.672 107.175 317.622 79.0253 318.422 58.8253" fill="#CECECE"/>
<path d="M296.992 26.0553L292.662 26.7953C291.792 27.3953 285.272 34.7953 284.752 42.2553C285.216 44.2317 285.827 46.1705 286.582 48.0553C287.462 50.6253 288.412 53.1853 289.502 55.6753C290.652 58.4063 292.006 61.047 293.552 63.5753C294.222 64.6453 294.552 65.1853 295.332 66.2053C295.961 66.3701 296.614 66.4242 297.262 66.3653C310.522 64.7053 315.692 54.2353 315.582 53.1453C315.472 52.0553 309.582 38.7353 305.992 30.8353C305.231 29.1557 303.935 27.7757 302.307 26.9108C300.678 26.046 298.809 25.7451 296.992 26.0553Z" fill="#2FDC92"/>
<path d="M280.352 17.5354C280.352 17.5354 284.122 31.5354 289.522 30.6354C294.922 29.7354 297.832 21.6354 296.932 18.7854C296.032 15.9354 284.862 10.0054 280.352 17.5354Z" fill="#FFDCCD"/>
<path d="M300.082 1.10531C298.789 0.237964 297.228 -0.138006 295.682 0.0454087C294.135 0.228824 292.706 0.959513 291.652 2.10531C289.652 4.33531 289.432 7.29531 290.092 10.0553C286.762 9.41531 282.922 10.3753 279.512 14.0553C279.512 14.0553 276.452 18.1953 278.722 20.3553C280.992 22.5153 284.092 20.7153 286.972 19.6753C289.852 18.6353 289.102 22.1653 290.732 24.6753C292.362 27.1853 293.732 26.9053 294.972 26.4953C296.212 26.0853 300.462 22.1553 297.762 15.9653C297.601 15.5827 297.414 15.2118 297.202 14.8553C297.894 14.5305 298.563 14.1562 299.202 13.7353C300.759 12.8884 302.022 11.5874 302.822 10.0053C303.42 8.42843 303.476 6.69695 302.98 5.08494C302.483 3.47294 301.464 2.0725 300.082 1.10531Z" fill="#CECECE"/>
<path d="M315.402 78.3853C314.762 91.0953 311.012 103.275 307.832 115.515C304.652 127.755 301.942 139.945 299.622 152.295L300.702 151.995C303.055 139.522 305.835 127.139 309.042 114.845C312.192 102.845 315.772 90.8453 316.402 78.3853C316.432 77.7453 315.432 77.7453 315.402 78.3853Z" fill="white"/>
<path d="M284.752 42.2554C284.752 42.2554 281.022 53.6554 277.882 56.6554C275.682 58.7654 266.152 62.0154 260.642 63.7754C260.859 67.3089 262.126 70.697 264.282 73.5054C272.372 71.6354 285.502 66.9254 288.722 63.1054C293.442 57.5154 295.592 49.3454 295.592 49.3454L284.752 42.2554Z" fill="#2FDC92"/>
<defs>
<linearGradient id="paint0_linear" x1="119.092" y1="217.125" x2="133.492" y2="195.525" gradientUnits="userSpaceOnUse">
<stop stop-color="white" stop-opacity="0"/>
<stop offset="0.99" stop-color="#CECECE"/>
</linearGradient>
<linearGradient id="paint1_linear" x1="167.042" y1="67.8953" x2="153.082" y2="81.1653" gradientUnits="userSpaceOnUse">
<stop stop-color="#00A99D"/>
<stop offset="1" stop-color="white"/>
</linearGradient>
<linearGradient id="paint2_linear" x1="1989.62" y1="1366.7" x2="1850.55" y2="1560.93" gradientUnits="userSpaceOnUse">
<stop stop-color="#00A99D"/>
<stop offset="1" stop-color="white"/>
</linearGradient>
<linearGradient id="paint3_linear" x1="3133.38" y1="2141.62" x2="2906.88" y2="2457.67" gradientUnits="userSpaceOnUse">
<stop stop-color="#00A99D"/>
<stop offset="1" stop-color="white"/>
</linearGradient>
<linearGradient id="paint4_linear" x1="5726.29" y1="1735.95" x2="5474.26" y2="2087.93" gradientUnits="userSpaceOnUse">
<stop stop-color="#00A99D"/>
<stop offset="1" stop-color="white"/>
</linearGradient>
<linearGradient id="paint5_linear" x1="3689.48" y1="1199.34" x2="3550.37" y2="1393.48" gradientUnits="userSpaceOnUse">
<stop stop-color="#00A99D"/>
<stop offset="1" stop-color="white"/>
</linearGradient>
<linearGradient id="paint6_linear" x1="3837.01" y1="1738.93" x2="3697.94" y2="1933.16" gradientUnits="userSpaceOnUse">
<stop stop-color="#00A99D"/>
<stop offset="1" stop-color="white"/>
</linearGradient>
<linearGradient id="paint7_linear" x1="321.862" y1="173.925" x2="300.292" y2="150.985" gradientUnits="userSpaceOnUse">
<stop stop-color="#C9C9C9" stop-opacity="0"/>
<stop offset="1" stop-color="#CECECE"/>
</linearGradient>
</defs>
</svg>
