<svg width="120" height="161" viewBox="0 0 120 161" fill="none" xmlns="http://www.w3.org/2000/svg">
<g clip-path="url(#clip0)">
<path d="M64.3071 87.9524C63.8772 88.406 63.2694 88.645 62.6442 88.6062C62.4279 88.5926 57.2874 88.2393 52.0296 85.4074C47.0611 82.7311 41.0653 77.3008 40.7172 66.6279C40.6981 66.0458 40.921 65.482 41.3328 65.0701C41.961 64.4419 42.6982 64.4419 43.0131 64.4419C43.0132 64.4419 43.0132 64.4419 43.0132 64.4419C43.2359 64.4419 48.4719 64.4795 53.867 67.713C56.6676 69.3916 58.996 71.6232 60.7877 74.346C62.952 77.6352 64.3255 81.6428 64.87 86.2571C64.9432 86.8779 64.737 87.4987 64.3071 87.9524Z" fill="#66BB6A"/>
<path d="M60.978 74.7998C60.1217 76.3894 59.3995 78.1797 58.8812 80.1966C58.4152 81.5965 57.7036 84.0561 57.1162 87.4591C60.2142 88.4344 62.5706 88.5973 62.7134 88.6063C63.3194 88.6442 63.9084 88.4111 64.3251 87.9687C64.7417 87.5262 64.9416 86.9206 64.8705 86.3154C64.3483 81.8618 63.038 77.9889 60.978 74.7998Z" fill="#66BB6A"/>
<path d="M62.0327 84.4937L57.5096 79.981L56.3169 73.9001C56.2225 73.4181 55.7642 73.1062 55.293 73.2027C54.822 73.2993 54.517 73.7685 54.6114 74.2502L55.3039 77.7805L52.8094 75.2917L51.6002 69.1271C51.5058 68.6452 51.0473 68.3336 50.5763 68.4297C50.1053 68.5264 49.8003 68.9954 49.8947 69.4772L50.6035 73.091L44.7826 67.2839C44.4384 66.9408 43.8881 66.9481 43.5527 67.2998C43.2173 67.6518 43.2243 68.2151 43.5682 68.558L49.9688 74.9437L45.5038 74.8657C45.024 74.8523 44.6277 75.2488 44.6193 75.7402C44.6113 76.2316 44.9938 76.6366 45.4741 76.6451L51.7846 76.7555L54.7538 79.7178L50.2205 79.6388C49.7445 79.6279 49.3443 80.0219 49.336 80.5133C49.3279 81.0046 49.7105 81.4097 50.1908 81.4182L56.5695 81.5296L60.8179 85.7681C60.9871 85.9368 61.2061 86.0207 61.4249 86.0207C61.6511 86.0207 61.8771 85.9309 62.0478 85.7521C62.3835 85.4 62.3766 84.8367 62.0327 84.4937Z" fill="#81C784"/>
<path d="M85.0095 65.106C84.5697 64.6481 83.9479 64.4069 83.3084 64.446C83.0872 64.4598 77.8286 64.8164 72.4499 67.6751C68.3168 69.8717 63.4892 73.9069 61.6379 81.1306C60.6267 84.0676 58.3991 92.0324 58.9201 104.025C58.9652 105.062 59.8321 105.874 60.8751 105.873C60.9033 105.873 60.9318 105.873 60.9603 105.872C62.0407 105.826 62.8791 104.925 62.8328 103.859C62.5629 97.6467 63.0815 92.5677 63.7499 88.82C65.2538 88.7349 69.7349 88.2534 74.3295 85.5362C77.1945 83.8417 79.5764 81.5891 81.4093 78.8407C83.6233 75.5205 85.0283 71.4751 85.5853 66.8173C85.6602 66.1907 85.4493 65.5639 85.0095 65.106Z" fill="#81C784"/>
<path d="M81.9006 67.2999C81.5651 66.948 81.0145 66.9409 80.6707 67.284L74.8502 73.091L75.559 69.4773C75.6534 68.9955 75.3484 68.5265 74.8774 68.4298C74.407 68.3336 73.948 68.6452 73.8535 69.1272L72.6442 75.2918L70.1498 77.7806L70.8423 74.2503C70.9368 73.7684 70.6317 73.2995 70.1607 73.2027C69.6898 73.1063 69.2313 73.4182 69.1368 73.9001L67.9439 79.9813L63.4207 84.4939C63.0768 84.837 63.07 85.4003 63.4052 85.7522C63.5758 85.931 63.8017 86.0207 64.0281 86.0207C64.247 86.0207 64.4661 85.9368 64.6351 85.7681L68.8835 81.5296L75.2625 81.4182C75.7428 81.4098 76.1254 81.0047 76.1173 80.5132C76.1092 80.027 75.7214 79.6386 75.248 79.6386C75.2429 79.6386 75.2378 79.6386 75.2328 79.6387L70.6994 79.7178L73.6685 76.7555L79.9791 76.6451C80.4594 76.6367 80.8419 76.2317 80.8338 75.7402C80.8258 75.2539 80.438 74.8655 79.9646 74.8655C79.9595 74.8655 79.9544 74.8655 79.9494 74.8656L75.4844 74.9437L81.885 68.558C82.2291 68.215 82.236 67.6517 81.9006 67.2999Z" fill="#66BB6A"/>
<path d="M85.3962 111.135C84.3974 111.135 83.4644 111.416 82.6716 111.904C81.5005 108.072 77.9373 105.285 73.7224 105.285C73.2547 105.285 72.7954 105.32 72.3463 105.387C70.4357 101.016 66.076 97.96 61.0008 97.96C55.9256 97.96 51.5659 101.016 49.6553 105.387C49.206 105.32 48.7467 105.285 48.2792 105.285C44.0643 105.285 40.5013 108.072 39.3301 111.904C38.5372 111.416 37.6044 111.135 36.6054 111.135C33.7269 111.135 31.3933 113.469 31.3933 116.347C31.3933 119.226 33.7269 121.559 36.6054 121.559C38.148 121.559 39.5335 120.889 40.4876 119.824C42.1648 122.34 45.0278 124 48.279 124C50.912 124 53.2897 122.91 54.9899 121.16C56.77 122.151 58.8187 122.718 61.0008 122.718C63.1827 122.718 65.2316 122.151 67.0117 121.16C68.7122 122.91 71.0896 124 73.7226 124C76.9738 124 79.8369 122.341 81.514 119.824C82.4682 120.889 83.8538 121.559 85.3962 121.559C88.2747 121.559 90.6083 119.226 90.6083 116.347C90.6083 113.469 88.2747 111.135 85.3962 111.135Z" fill="#F09B73"/>
<path d="M67.8054 103.027C69.0363 103.027 70.2241 103.21 71.3464 103.544C69.1334 100.181 65.3273 97.96 61.0008 97.96C55.9255 97.96 51.5659 101.016 49.6553 105.387C49.206 105.32 48.7467 105.285 48.2792 105.285C44.0643 105.285 40.5013 108.072 39.3301 111.904C38.5372 111.416 37.6044 111.135 36.6054 111.135C33.7269 111.135 31.3933 113.469 31.3933 116.347C31.3933 119.226 33.7269 121.559 36.6054 121.559C38.148 121.559 39.5335 120.889 40.4876 119.824C42.1649 122.34 45.0278 124 48.279 124C50.912 124 53.2897 122.91 54.9899 121.16C55.7663 121.592 56.5936 121.943 57.4608 122.202C56.1763 120.251 55.4267 117.917 55.4267 115.406C55.4267 108.57 60.9689 103.027 67.8054 103.027Z" fill="#DB7F5F"/>
<path d="M65.9233 114.754C67.1626 114.754 68.1673 113.75 68.1673 112.51C68.1673 111.271 67.1626 110.266 65.9233 110.266C64.6839 110.266 63.6792 111.271 63.6792 112.51C63.6792 113.75 64.6839 114.754 65.9233 114.754Z" fill="#DB7F5F"/>
<path d="M74.9706 120.039C76.21 120.039 77.2147 119.034 77.2147 117.795C77.2147 116.555 76.21 115.551 74.9706 115.551C73.7313 115.551 72.7266 116.555 72.7266 117.795C72.7266 119.034 73.7313 120.039 74.9706 120.039Z" fill="#DB7F5F"/>
<path d="M73.592 110.979C74.0689 110.979 74.4555 110.593 74.4555 110.116C74.4555 109.639 74.0689 109.252 73.592 109.252C73.1151 109.252 72.7285 109.639 72.7285 110.116C72.7285 110.593 73.1151 110.979 73.592 110.979Z" fill="#DB7F5F"/>
<path d="M60.9997 119.522C61.4766 119.522 61.8632 119.135 61.8632 118.658C61.8632 118.182 61.4766 117.795 60.9997 117.795C60.5228 117.795 60.1362 118.182 60.1362 118.658C60.1362 119.135 60.5228 119.522 60.9997 119.522Z" fill="#DB7F5F"/>
<path d="M63.6784 107.752C64.1553 107.752 64.5419 107.366 64.5419 106.889C64.5419 106.412 64.1553 106.025 63.6784 106.025C63.2015 106.025 62.8149 106.412 62.8149 106.889C62.8149 107.366 63.2015 107.752 63.6784 107.752Z" fill="#DB7F5F"/>
<path d="M82.26 115.619C82.7369 115.619 83.1234 115.232 83.1234 114.755C83.1234 114.278 82.7369 113.892 82.26 113.892C81.7831 113.892 81.3965 114.278 81.3965 114.755C81.3965 115.232 81.7831 115.619 82.26 115.619Z" fill="#DB7F5F"/>
<path d="M77.2162 101.647C78.4556 101.647 79.4603 100.642 79.4603 99.4028C79.4603 98.1634 78.4556 97.1587 77.2162 97.1587C75.9769 97.1587 74.9722 98.1634 74.9722 99.4028C74.9722 100.642 75.9769 101.647 77.2162 101.647Z" fill="#F09B73"/>
<path d="M82.26 105.284C82.7369 105.284 83.1234 104.898 83.1234 104.421C83.1234 103.944 82.7369 103.557 82.26 103.557C81.7831 103.557 81.3965 103.944 81.3965 104.421C81.3965 104.898 81.7831 105.284 82.26 105.284Z" fill="#F09B73"/>
<path d="M82.26 101.13C82.7369 101.13 83.1234 100.743 83.1234 100.266C83.1234 99.7894 82.7369 99.4028 82.26 99.4028C81.7831 99.4028 81.3965 99.7894 81.3965 100.266C81.3965 100.743 81.7831 101.13 82.26 101.13Z" fill="#F09B73"/>
<path d="M42.883 100.855C44.1223 100.855 45.127 99.8501 45.127 98.6108C45.127 97.3714 44.1223 96.3667 42.883 96.3667C41.6436 96.3667 40.6389 97.3714 40.6389 98.6108C40.6389 99.8501 41.6436 100.855 42.883 100.855Z" fill="#DB7F5F"/>
<path d="M39.1565 104.421C39.6333 104.421 40.0199 104.034 40.0199 103.557C40.0199 103.08 39.6333 102.694 39.1565 102.694C38.6796 102.694 38.293 103.08 38.293 103.557C38.293 104.034 38.6796 104.421 39.1565 104.421Z" fill="#DB7F5F"/>
</g>
<path d="M0 161H120V137C120 123.745 109.255 113 96 113H24C10.7452 113 0 123.745 0 137V161Z" fill="#81C784"/>
<path d="M57.7779 0.000488281H85.7387C88.9291 0.000488281 91.5155 2.58686 91.5155 5.77722C91.5155 6.86158 91.2156 7.87434 90.6949 8.73993C90.2429 9.49109 90.7527 10.4469 91.6293 10.4469H100.095C103.227 10.4469 105.895 12.8828 106.007 16.0129C106.123 19.2993 103.494 22.0001 100.234 22.0001H72.425C69.1872 22.0001 66.4366 19.3504 66.4971 16.1132C66.517 15.0567 66.8215 14.0712 67.3367 13.2276C67.7844 12.4945 67.225 11.5536 66.3659 11.5536H57.7782C54.5878 11.5536 52.0015 8.96727 52.0015 5.77691C52.0015 2.58686 54.5875 0.000488281 57.7779 0.000488281Z" fill="#DFF6FD"/>
<path d="M84.1909 17.6876C80.9531 17.6876 78.2024 15.0378 78.263 11.8007C78.2829 10.7442 78.5873 9.75863 79.1026 8.91507C79.5502 8.18196 78.9909 7.2411 78.1317 7.2411H69.5441C66.3537 7.2411 63.7673 4.65473 63.7673 1.46438C63.7673 0.957383 63.8392 0.468441 63.9619 0H57.7767C54.5864 0 52 2.58637 52 5.77673C52 8.96708 54.5864 11.5535 57.7767 11.5535H66.3644C67.2236 11.5535 67.7829 12.4943 67.3353 13.2274C66.8203 14.071 66.5156 15.0565 66.4957 16.113C66.4348 19.3502 69.1858 21.9999 72.4236 21.9999H100.232C102.916 21.9999 105.169 20.1681 105.817 17.6876H84.1909Z" fill="#C8EFFE"/>
<rect x="12" y="138" width="19" height="6" rx="3" fill="#66BB6A"/>
<rect x="83" y="127" width="19" height="6" rx="3" fill="#66BB6A"/>
<rect x="52" y="144" width="19" height="6" rx="3" fill="#66BB6A"/>
<defs>
<clipPath id="clip0">
<rect width="82" height="82" fill="white" transform="translate(20 42)"/>
</clipPath>
</defs>
</svg>
