<svg width="120" height="117" viewBox="0 0 120 117" fill="none" xmlns="http://www.w3.org/2000/svg">
<path d="M69.1381 13.4186C69.6244 12.1656 69.862 10.7894 69.7889 9.34872C69.5329 4.29752 65.39 0.211093 60.3237 0.00815908C54.6812 -0.217821 50.034 4.27962 50.034 9.8602C50.034 11.1129 50.2684 12.3104 50.6953 13.4126C50.966 14.1115 50.8276 14.9078 50.3072 15.4482C49.8411 15.9321 49.4112 16.4512 49.0224 17.002C49.0224 17.002 45.1902 23.0634 47.8256 29.4153C47.8978 29.5893 47.9779 29.7475 48.0631 29.8952C49.4677 36.5864 59.9168 37.9264 59.9168 37.9264C67.274 37.9264 73.2382 31.9794 73.2382 24.6406C73.2382 21.0871 71.8361 17.8599 69.5554 15.4757C69.0287 14.9253 68.8627 14.1283 69.1381 13.4186Z" fill="#81C784"/>
<path d="M54.5849 32.2003C54.5011 32.0523 54.4224 31.8939 54.3514 31.7195C51.7614 25.3569 55.5277 19.2851 55.5277 19.2851C55.9098 18.7333 56.3323 18.2133 56.7904 17.7286C57.3019 17.1873 57.4381 16.3894 57.1718 15.6893C56.7521 14.5852 56.5219 13.3859 56.5219 12.1308C56.5219 6.80227 60.6725 2.46301 65.8636 2.26421C64.2764 0.930667 62.2716 0.0969262 60.093 0.00817301C54.5474 -0.218193 49.9802 4.28693 49.9802 9.87726C49.9802 11.1321 50.2105 12.3316 50.6301 13.4357C50.8961 14.1358 50.7601 14.9335 50.2487 15.475C49.7906 15.9598 49.368 16.4797 48.986 17.0315C48.986 17.0315 45.2196 23.1033 47.8097 29.466C47.8806 29.6403 47.9593 29.7988 48.0431 29.9467C49.2578 35.8445 57.3535 37.5918 59.2806 37.9264C57.1105 36.7031 55.1369 34.8808 54.5849 32.2003Z" fill="#66BB6A"/>
<path d="M59.8011 27.4469C59.3298 27.4469 58.8607 27.2521 58.5245 26.8706C57.9038 26.166 57.9718 25.0914 58.6767 24.4709L62.6064 21.0093C63.3107 20.3888 64.3853 20.4566 65.006 21.1612C65.6268 21.8658 65.5588 22.9404 64.8539 23.5609L60.9242 27.0225C60.6014 27.307 60.2003 27.4469 59.8011 27.4469Z" fill="#F09B73"/>
<path d="M59.8014 62.3586C58.8621 62.3586 58.1011 61.5973 58.1011 60.6583V18.7169C58.1011 17.7779 58.8621 17.0166 59.8014 17.0166C60.7406 17.0166 61.5017 17.7779 61.5017 18.7169V60.6581C61.5017 61.5973 60.7404 62.3586 59.8014 62.3586Z" fill="#F09B73"/>
<path d="M82.2387 69.2313C81.3439 69.2313 80.508 69.4834 79.7977 69.92C78.7485 66.4873 75.5563 63.9903 71.7802 63.9903C71.3611 63.9903 70.9497 64.022 70.5473 64.0813C68.8356 60.1654 64.9297 57.4277 60.3828 57.4277C55.836 57.4277 51.9301 60.1654 50.2184 64.0813C49.8159 64.022 49.4043 63.9903 48.9855 63.9903C45.2094 63.9903 42.0173 66.4873 40.968 69.92C40.2576 69.4834 39.4219 69.2313 38.5269 69.2313C35.9481 69.2313 33.8574 71.322 33.8574 73.9008C33.8574 76.4797 35.9481 78.5703 38.5269 78.5703C39.9089 78.5703 41.1502 77.9696 42.005 77.0155C43.5077 79.2703 46.0726 80.7567 48.9854 80.7567C51.3443 80.7567 53.4744 79.781 54.9977 78.2127C56.5925 79.1006 58.4279 79.6081 60.3828 79.6081C62.3376 79.6081 64.1732 79.1005 65.768 78.2127C67.2914 79.781 69.4214 80.7567 71.7803 80.7567C74.6931 80.7567 77.2581 79.2705 78.7606 77.0155C79.6155 77.9696 80.8568 78.5703 82.2387 78.5703C84.8176 78.5703 86.9082 76.4797 86.9082 73.9008C86.9082 71.3219 84.8176 69.2313 82.2387 69.2313Z" fill="#F09B73"/>
<path d="M66.479 61.9676C67.5819 61.9676 68.646 62.1308 69.6515 62.4305C67.6688 59.4178 64.2589 57.4277 60.3828 57.4277C55.8358 57.4277 51.9301 60.1654 50.2184 64.0813C49.8159 64.0219 49.4043 63.9903 48.9855 63.9903C45.2094 63.9903 42.0173 66.4873 40.968 69.92C40.2576 69.4834 39.4219 69.2313 38.5269 69.2313C35.9481 69.2313 33.8574 71.322 33.8574 73.9008C33.8574 76.4797 35.9481 78.5703 38.5269 78.5703C39.9089 78.5703 41.1502 77.9696 42.005 77.0155C43.5077 79.2703 46.0726 80.7567 48.9854 80.7567C51.3443 80.7567 53.4744 79.781 54.9977 78.2127C55.6932 78.6 56.4344 78.9146 57.2113 79.1466C56.0605 77.3986 55.389 75.3071 55.389 73.0578C55.389 66.9329 60.3542 61.9676 66.479 61.9676Z" fill="#DB7F5F"/>
<path d="M64.7922 72.4736C65.9025 72.4736 66.8027 71.5734 66.8027 70.4631C66.8027 69.3528 65.9025 68.4526 64.7922 68.4526C63.6819 68.4526 62.7817 69.3528 62.7817 70.4631C62.7817 71.5734 63.6819 72.4736 64.7922 72.4736Z" fill="#DB7F5F"/>
<path d="M72.8991 77.2084C74.0095 77.2084 74.9096 76.3083 74.9096 75.198C74.9096 74.0876 74.0095 73.1875 72.8991 73.1875C71.7888 73.1875 70.8887 74.0876 70.8887 75.198C70.8887 76.3083 71.7888 77.2084 72.8991 77.2084Z" fill="#DB7F5F"/>
<path d="M71.6628 69.0921C72.09 69.0921 72.4363 68.7458 72.4363 68.3185C72.4363 67.8913 72.09 67.5449 71.6628 67.5449C71.2355 67.5449 70.8892 67.8913 70.8892 68.3185C70.8892 68.7458 71.2355 69.0921 71.6628 69.0921Z" fill="#DB7F5F"/>
<path d="M60.382 76.7449C60.8092 76.7449 61.1556 76.3986 61.1556 75.9713C61.1556 75.5441 60.8092 75.1978 60.382 75.1978C59.9547 75.1978 59.6084 75.5441 59.6084 75.9713C59.6084 76.3986 59.9547 76.7449 60.382 76.7449Z" fill="#DB7F5F"/>
<path d="M62.7819 66.2005C63.2091 66.2005 63.5555 65.8542 63.5555 65.4269C63.5555 64.9997 63.2091 64.6533 62.7819 64.6533C62.3547 64.6533 62.0083 64.9997 62.0083 65.4269C62.0083 65.8542 62.3547 66.2005 62.7819 66.2005Z" fill="#DB7F5F"/>
<path d="M79.4284 73.2479C79.8556 73.2479 80.202 72.9015 80.202 72.4743C80.202 72.047 79.8556 71.7007 79.4284 71.7007C79.0011 71.7007 78.6548 72.047 78.6548 72.4743C78.6548 72.9015 79.0011 73.2479 79.4284 73.2479Z" fill="#DB7F5F"/>
<path d="M44.1506 60.0209C45.2609 60.0209 46.1611 59.1208 46.1611 58.0105C46.1611 56.9001 45.2609 56 44.1506 56C43.0403 56 42.1401 56.9001 42.1401 58.0105C42.1401 59.1208 43.0403 60.0209 44.1506 60.0209Z" fill="#DB7F5F"/>
<path d="M40.8127 63.2156C41.2399 63.2156 41.5863 62.8693 41.5863 62.442C41.5863 62.0148 41.2399 61.6685 40.8127 61.6685C40.3854 61.6685 40.0391 62.0148 40.0391 62.442C40.0391 62.8693 40.3854 63.2156 40.8127 63.2156Z" fill="#DB7F5F"/>
<path d="M0 117H120V93C120 79.7452 109.255 69 96 69H24C10.7452 69 0 79.7452 0 93V117Z" fill="#81C784"/>
<rect x="103" y="98" width="19" height="6" rx="3" transform="rotate(-180 103 98)" fill="#66BB6A"/>
<rect x="41" y="106" width="19" height="6" rx="3" transform="rotate(-180 41 106)" fill="#66BB6A"/>
<rect x="62" y="86" width="19" height="6" rx="3" transform="rotate(-180 62 86)" fill="#66BB6A"/>
</svg>
