<svg width="120" height="149" viewBox="0 0 120 149" fill="none" xmlns="http://www.w3.org/2000/svg">
<path d="M0 149H120V125C120 111.745 109.255 101 96 101H24C10.7452 101 0 111.745 0 125V149Z" fill="#81C784"/>
<path d="M58.3347 94.7777C57.9 94.7777 57.4832 94.6051 57.1758 94.2977C56.8685 93.9904 56.6958 93.5735 56.6958 93.1388V75.1111C56.6958 74.6764 56.8685 74.2595 57.1758 73.9522C57.4832 73.6448 57.9 73.4722 58.3347 73.4722C58.7694 73.4722 59.1862 73.6448 59.4936 73.9522C59.8009 74.2595 59.9736 74.6764 59.9736 75.1111V93.1388C59.9736 93.5735 59.8009 93.9904 59.4936 94.2977C59.1862 94.6051 58.7694 94.7777 58.3347 94.7777Z" fill="#F5D3B8"/>
<path d="M58.3346 78.3889H53.418C49.5074 78.3845 45.7582 76.8291 42.993 74.0639C40.2278 71.2987 38.6724 67.5495 38.668 63.6389C38.668 63.2042 38.8406 62.7874 39.148 62.48C39.4553 62.1727 39.8722 62 40.3069 62H45.2235C49.1341 62.0044 52.8833 63.5598 55.6485 66.325C58.4137 69.0902 59.9691 72.8394 59.9735 76.75C59.9735 77.1847 59.8009 77.6015 59.4935 77.9089C59.1862 78.2162 58.7693 78.3889 58.3346 78.3889Z" fill="#81C784"/>
<path d="M42.7647 68.5558C44.1224 68.5558 45.2231 67.4552 45.2231 66.0975C45.2231 64.7398 44.1224 63.6392 42.7647 63.6392C41.407 63.6392 40.3064 64.7398 40.3064 66.0975C40.3064 67.4552 41.407 68.5558 42.7647 68.5558Z" fill="#C8E6C9"/>
<path d="M48.5019 70.1943C49.4071 70.1943 50.1408 69.4605 50.1408 68.5554C50.1408 67.6503 49.4071 66.9165 48.5019 66.9165C47.5968 66.9165 46.863 67.6503 46.863 68.5554C46.863 69.4605 47.5968 70.1943 48.5019 70.1943Z" fill="#C8E6C9"/>
<path d="M57.0548 105.635L50.5256 97.4738C50.2884 97.1774 50.1614 96.8078 50.1664 96.4282C50.1714 96.0486 50.308 95.6824 50.5529 95.3924C52.671 92.882 55.4345 91.5 58.3345 91.5C61.2346 91.5 63.9981 92.8824 66.1162 95.3924C66.361 95.6824 66.4976 96.0484 66.5025 96.428C66.5075 96.8075 66.3806 97.177 66.1434 97.4733L59.6143 105.635C59.4608 105.827 59.266 105.982 59.0445 106.089C58.823 106.195 58.5803 106.251 58.3345 106.251C58.0888 106.251 57.8461 106.195 57.6246 106.089C57.4031 105.982 57.2083 105.827 57.0548 105.635Z" fill="#FFEAD2"/>
<path d="M58.3343 121C52.0083 121 46.862 114.383 46.862 106.25C46.8208 101.628 48.6099 97.1767 51.8387 93.8687L58.3343 101.988L64.8298 93.8687C67.9662 97.1544 69.8065 101.268 69.8065 106.25C69.8065 114.383 64.6602 121 58.3343 121Z" fill="#F09B73"/>
<path d="M52.5985 104.611C53.9562 104.611 55.0568 103.51 55.0568 102.153C55.0568 100.795 53.9562 99.6943 52.5985 99.6943C51.2408 99.6943 50.1401 100.795 50.1401 102.153C50.1401 103.51 51.2408 104.611 52.5985 104.611Z" fill="#F2BBA5"/>
<path d="M55.0569 109.528C55.962 109.528 56.6957 108.794 56.6957 107.889C56.6957 106.984 55.962 106.25 55.0569 106.25C54.1517 106.25 53.418 106.984 53.418 107.889C53.418 108.794 54.1517 109.528 55.0569 109.528Z" fill="#F2BBA5"/>
<path d="M55.2075 65.9043C54.2324 68.1424 52.8144 70.1599 51.0387 71.8353C49.2631 73.5106 47.1667 74.8092 44.8757 75.6526C47.3675 77.4348 50.3549 78.3918 53.4184 78.3892H58.3351C58.7698 78.3892 59.1866 78.2165 59.494 77.9091C59.8013 77.6018 59.974 77.1849 59.974 76.7503C59.9747 74.7108 59.5513 72.6934 58.7307 70.8263C57.9102 68.9592 56.7104 67.283 55.2075 65.9043Z" fill="#66BB6A"/>
<path d="M63.2514 78.3889H58.3347C57.9 78.3889 57.4832 78.2162 57.1758 77.9089C56.8685 77.6015 56.6958 77.1847 56.6958 76.75C56.7002 72.8394 58.2556 69.0902 61.0208 66.325C63.786 63.5598 67.5352 62.0044 71.4458 62H76.3625C76.7971 62 77.214 62.1727 77.5213 62.48C77.8287 62.7874 78.0014 63.2042 78.0014 63.6389C77.997 67.5495 76.4415 71.2987 73.6763 74.0639C70.9111 76.8291 67.162 78.3845 63.2514 78.3889Z" fill="#81C784"/>
<path d="M76.3623 62H71.4457C71.3723 62 71.3 62.0045 71.2269 62.0055C70.7923 65.2378 69.7185 68.3512 68.068 71.164C66.4176 73.9769 64.2235 76.4329 61.6138 78.3889H63.2512C67.1618 78.3845 70.911 76.8291 73.6762 74.0639C76.4414 71.2987 77.9968 67.5495 78.0012 63.6389C78.0012 63.2042 77.8286 62.7874 77.5212 62.48C77.2139 62.1727 76.797 62 76.3623 62Z" fill="#66BB6A"/>
<path d="M73.9397 0.000488281H93.0039C95.1792 0.000488281 96.9426 1.76392 96.9426 3.93917C96.9426 4.6785 96.7381 5.36903 96.3831 5.9592C96.075 6.47135 96.4225 7.12307 97.0202 7.12307H102.792C104.928 7.12307 106.747 8.78387 106.823 10.918C106.903 13.1588 105.11 15.0002 102.887 15.0002H83.9264C81.7188 15.0002 79.8433 13.1936 79.8846 10.9864C79.8982 10.2661 80.1058 9.59413 80.4571 9.01898C80.7623 8.51913 80.3809 7.87764 79.7951 7.87764H73.9399C71.7647 7.87764 70.0012 6.1142 70.0012 3.93896C70.0012 1.76392 71.7644 0.000488281 73.9397 0.000488281Z" fill="#DFF6FD"/>
<path d="M91.9483 12.0597C89.7408 12.0597 87.8653 10.2531 87.9066 8.04592C87.9202 7.32556 88.1277 6.65361 88.479 6.07846C88.7842 5.57861 88.4029 4.93712 87.8171 4.93712H81.9619C79.7866 4.93712 78.0232 3.17368 78.0232 0.998439C78.0232 0.652761 78.0722 0.319392 78.1559 0H73.9387C71.7634 0 70 1.76343 70 3.93868C70 6.11392 71.7634 7.87735 73.9387 7.87735H79.7939C80.3797 7.87735 80.7611 8.51885 80.4559 9.01869C80.1048 9.59385 79.897 10.2658 79.8834 10.9862C79.8419 13.1933 81.7176 14.9999 83.9251 14.9999H102.886C104.716 14.9999 106.251 13.7509 106.694 12.0597H91.9483Z" fill="#C8EFFE"/>
<rect x="10" y="129" width="19" height="6" rx="3" fill="#66BB6A"/>
<rect x="81" y="118" width="19" height="6" rx="3" fill="#66BB6A"/>
<rect x="50" y="135" width="19" height="6" rx="3" fill="#66BB6A"/>
</svg>
