<svg width="120" height="144" viewBox="0 0 120 144" fill="none" xmlns="http://www.w3.org/2000/svg">
<path d="M58.2852 98.4877C57.1159 98.4877 56.168 97.5398 56.168 96.3705V50.6377C56.168 49.4685 57.1159 48.5205 58.2852 48.5205C59.4544 48.5205 60.4024 49.4685 60.4024 50.6377V96.3705C60.4024 97.5398 59.4544 98.4877 58.2852 98.4877Z" fill="#DC8758"/>
<path d="M51.9626 29.7571C52.1122 29.4759 51.9084 29.1366 51.59 29.1366H50.4439C49.9611 29.1366 49.6534 28.6228 49.8793 28.1966L57.1399 14.5589C57.5379 13.8137 58.6078 13.8137 59.0059 14.5589L66.433 28.5156L75.9401 56.568C76.3063 57.6483 75.5029 58.7691 74.3621 58.7691H72.6522H40.9128C39.7017 58.7691 38.8952 57.5179 39.3952 56.4147L48.7159 35.858L51.9626 29.7571Z" fill="#99D5B9"/>
<path d="M55.1052 57.1201C50.3606 57.1201 47.2013 52.231 49.1606 47.921L55.355 34.2944L58.0599 29.2242C58.453 28.4873 57.9175 27.598 57.0807 27.598C56.5985 27.598 56.2912 27.0862 56.5167 26.6615L60.9387 18.3766L58.9131 14.5798C58.5156 13.8373 57.4469 13.8373 57.0494 14.5798L49.7973 28.1667C49.5717 28.5914 49.8791 29.1032 50.3612 29.1032H51.506C51.8243 29.1032 52.0279 29.4413 51.8782 29.7214L48.6356 35.7996L39.3258 56.2798C38.8261 57.3789 39.6317 58.6254 40.8416 58.6254H72.5432H74.251C75.1457 58.6254 75.8297 57.9366 75.9067 57.1201H55.1052Z" fill="#7ACAA6"/>
<path d="M86.2215 43.4413C86.9682 41.7157 87.3401 39.791 87.2339 37.7689C86.8938 31.3028 81.5747 26.0828 75.0847 25.8388C67.8717 25.5677 61.9386 31.3171 61.9386 38.4478C61.9386 40.2205 62.3056 41.9078 62.9676 43.4385C63.2367 44.0604 63.1089 44.7857 62.6253 45.2612C59.3736 48.4567 57.4006 52.9414 57.5494 57.8866C57.8208 66.9199 65.2904 74.241 74.3543 74.3658C83.8835 74.497 91.6492 66.8352 91.6492 57.3652C91.6492 52.6413 89.7141 48.3705 86.5943 45.2896C86.1018 44.8034 85.947 44.0756 86.2215 43.4413Z" fill="#81C784"/>
<path d="M66.7744 60.2479C66.7744 55.5591 68.6619 51.3165 71.7109 48.2407C72.2481 47.6987 72.3789 46.8811 72.0866 46.1741C71.4697 44.6822 71.129 43.0457 71.129 41.329C71.129 34.7657 76.1059 29.3745 82.4664 28.768C80.1227 26.7933 77.0527 25.6636 73.7173 25.8494C67.3835 26.2025 62.2519 31.3804 61.9144 37.7587C61.7852 40.2007 62.3463 42.5013 63.4185 44.4812C59.8221 47.5996 57.5415 52.2142 57.5415 57.368C57.5415 66.6986 65.0063 74.2704 74.2502 74.3675C69.7414 71.3144 66.7744 66.1305 66.7744 60.2479Z" fill="#66BB6A"/>
<path d="M74.2422 60.4621C73.6553 60.4621 73.0712 60.2196 72.6526 59.7445C71.8796 58.8671 71.9643 57.529 72.8417 56.7564L77.735 52.446C78.6124 51.6731 79.9504 51.7578 80.7231 52.6352C81.4957 53.5125 81.4113 54.8506 80.5339 55.6232L75.6407 59.9336C75.2384 60.2879 74.739 60.4621 74.2422 60.4621Z" fill="#DC8758"/>
<path d="M74.2412 88.4911C73.072 88.4911 72.124 87.5432 72.124 86.3739V49.5918C72.124 48.4226 73.072 47.4746 74.2412 47.4746C75.4105 47.4746 76.3584 48.4226 76.3584 49.5918V86.3739C76.3584 87.5432 75.4105 88.4911 74.2412 88.4911Z" fill="#DC8758"/>
<path d="M39.175 67.8084C48.5935 67.8084 56.2288 60.1731 56.2288 50.7545C56.2288 41.336 48.5935 33.7007 39.175 33.7007C29.7564 33.7007 22.1211 41.336 22.1211 50.7545C22.1211 60.1731 29.7564 67.8084 39.175 67.8084Z" fill="#81C784"/>
<path d="M32.7888 53.248C32.7888 44.3669 39.6257 37.0746 48.3578 36.2707C45.7268 34.6435 42.622 33.7007 39.2943 33.7007C29.81 33.7007 22.1211 41.3359 22.1211 50.7545C22.1211 60.1732 29.8097 67.8084 39.2943 67.8084C39.8354 67.8084 40.37 67.7804 40.8984 67.7318C36.0306 64.7215 32.7888 59.3617 32.7888 53.248Z" fill="#66BB6A"/>
<path d="M39.4734 54.4743C39.2515 54.4743 39.0259 54.4391 38.8038 54.3651L33.2683 52.5203C32.1588 52.1505 31.5593 50.9516 31.9291 49.8425C32.2989 48.7333 33.498 48.1334 34.6069 48.5032L40.1424 50.348C41.2518 50.7178 41.8514 51.9168 41.4816 53.0259C41.1861 53.9131 40.3598 54.4743 39.4734 54.4743Z" fill="#DC8758"/>
<path d="M41.7965 74.995C41.7993 71.806 41.7972 67.5599 41.7939 63.3159C41.7866 54.8299 41.772 46.3519 41.772 46.3519C41.7699 45.1601 40.8952 44.1953 39.8173 44.1953C39.816 44.1953 39.8147 44.1953 39.8134 44.1953C38.7338 44.1976 37.8602 45.1667 37.8623 46.36C37.8847 59.4104 37.9045 86.9683 37.8675 87.9708C37.8748 87.7767 37.9585 87.6678 38.0849 87.6139L37.8675 87.9708V90.1096H41.7722L41.7975 85.5236L41.7902 85.5155C41.7936 82.8026 41.7954 76.3191 41.7965 74.995Z" fill="#DC8758"/>
<path d="M32.7081 91.4859C33.1693 91.4859 33.6064 91.6251 34.0266 91.8214C35.4758 88.3277 37.9815 87.0332 40.8332 87.0332C43.6849 87.0332 46.1892 88.3277 47.6398 91.8214C48.06 91.6251 48.4971 91.4859 48.9583 91.4859C51.5211 91.4859 53.601 92.5792 53.601 96.6096H28.0654C28.0654 92.5792 30.1438 91.4859 32.7081 91.4859Z" fill="#61B872"/>
<path d="M66.6769 91.4859C67.138 91.4859 67.5752 91.6251 67.9954 91.8214C69.4446 88.3277 71.9502 87.0332 74.8019 87.0332C77.6537 87.0332 80.1579 88.3277 81.6085 91.8214C82.0287 91.6251 82.4659 91.4859 82.927 91.4859C85.4899 91.4859 87.5697 92.5792 87.5697 96.6096H62.0342C62.0342 92.5792 64.1126 91.4859 66.6769 91.4859Z" fill="#61B872"/>
<path d="M0 144H120V120C120 106.745 109.255 96 96 96H24C10.7452 96 0 106.745 0 120V144Z" fill="#81C784"/>
<path d="M39.1728 0H21.6813C19.6855 0 18.0675 1.61796 18.0675 3.61375C18.0675 4.38837 18.3122 5.1048 18.7279 5.69204C18.9786 6.04633 18.7323 6.5348 18.2982 6.5348H12.7003C10.7409 6.5348 9.07202 8.05859 9.00235 10.0167C8.92923 12.0726 10.5742 13.7621 12.6136 13.7621H30.0099C32.0354 13.7621 33.7561 12.1045 33.7183 10.0795C33.7043 9.33259 33.4627 8.64237 33.0608 8.07294C32.8095 7.71712 33.0531 7.22712 33.4888 7.22712H39.1728C41.1685 7.22712 42.7865 5.60916 42.7865 3.61337C42.7863 1.61796 41.1685 0 39.1728 0Z" fill="#DFF6FD"/>
<path d="M14.1173 13.4622C14.187 11.5039 15.8558 9.9803 17.8153 9.9803H21.9445C22.9084 9.9803 23.6323 9.05218 23.3452 8.1319C23.2395 7.79311 23.1825 7.43288 23.1825 7.05906C23.1825 5.06327 24.8004 3.44531 26.7962 3.44531H42.7781C42.6895 1.52819 41.1119 0 39.1729 0H21.6813C19.6855 0 18.0675 1.61796 18.0675 3.61375C18.0675 4.38837 18.3123 5.1048 18.7279 5.69223C18.9786 6.04652 18.7323 6.53499 18.2982 6.53499H12.7003C10.7409 6.53499 9.07202 8.05878 9.00235 10.0169C8.92923 12.0728 10.5742 13.7623 12.6136 13.7623H14.1221C14.1175 13.663 14.1137 13.5634 14.1173 13.4622Z" fill="#C8EFFE"/>
<rect x="46" y="116" width="19" height="6" rx="3" transform="rotate(-180 46 116)" fill="#66BB6A"/>
<rect x="90" y="133" width="19" height="6" rx="3" transform="rotate(-180 90 133)" fill="#66BB6A"/>
<rect x="100" y="113" width="19" height="6" rx="3" transform="rotate(-180 100 113)" fill="#66BB6A"/>
<rect x="54" y="133" width="19" height="6" rx="3" transform="rotate(-180 54 133)" fill="#66BB6A"/>
</svg>
