<svg width="120" height="173" viewBox="0 0 120 173" fill="none" xmlns="http://www.w3.org/2000/svg">
<path d="M33.6418 127.548C32.5949 127.548 31.7461 126.7 31.7461 125.653V62.3078C31.7461 61.2609 32.5949 60.4121 33.6418 60.4121C34.6888 60.4121 35.5375 61.2609 35.5375 62.3078V125.653C35.5375 126.7 34.6888 127.548 33.6418 127.548Z" fill="#DC8758"/>
<path d="M25.9813 46.1087C26.1153 45.857 25.9328 45.5532 25.6476 45.5532H24.6214C24.1892 45.5532 23.9137 45.0931 24.1159 44.7115L30.617 32.5005C30.9734 31.8332 31.9313 31.8332 32.2877 32.5005L38.9379 44.9971L47.4505 70.1149C47.7783 71.0823 47.059 72.0857 46.0376 72.0857H44.5066H16.0874C15.003 72.0857 14.2809 70.9655 14.7285 69.9777L23.0743 51.5715L25.9813 46.1087Z" fill="#99D5B9"/>
<path d="M28.7957 70.6093C24.5475 70.6093 21.7186 66.2316 23.473 62.3724L29.0194 50.1714L31.4413 45.6315C31.7932 44.9717 31.3138 44.1755 30.5645 44.1755C30.1328 44.1755 29.8576 43.7172 30.0596 43.3369L34.019 35.9187L32.2053 32.5191C31.8493 31.8543 30.8924 31.8543 30.5365 32.5191L24.043 44.6847C23.8411 45.0649 24.1163 45.5232 24.548 45.5232H25.573C25.858 45.5232 26.0403 45.8259 25.9062 46.0767L23.0029 51.5191L14.667 69.8568C14.2196 70.8409 14.9409 71.957 16.0242 71.957H44.4095H45.9386C46.7397 71.957 47.3522 71.3403 47.4211 70.6093H28.7957Z" fill="#7ACAA6"/>
<path d="M58.6554 33.7694C59.324 32.2242 59.657 30.5009 59.5618 28.6903C59.2573 22.9006 54.4946 18.2267 48.6835 18.0082C42.2252 17.7655 36.9127 22.9135 36.9127 29.2982C36.9127 30.8854 37.2413 32.3962 37.834 33.7668C38.075 34.3237 37.9606 34.9731 37.5275 35.3989C34.616 38.26 32.8494 42.2756 32.9826 46.7035C33.2256 54.7918 39.9139 61.3471 48.0296 61.4588C56.5619 61.5763 63.5153 54.7159 63.5153 46.2366C63.5153 42.0069 61.7826 38.1829 58.9891 35.4243C58.5481 34.9889 58.4095 34.3372 58.6554 33.7694Z" fill="#81C784"/>
<path d="M41.2426 48.8178C41.2426 44.6195 42.9327 40.8207 45.6627 38.0667C46.1437 37.5813 46.2608 36.8493 45.9991 36.2162C45.4467 34.8804 45.1417 33.4151 45.1417 31.878C45.1417 26.0013 49.5979 21.1741 55.293 20.631C53.1945 18.8629 50.4457 17.8514 47.4592 18.0178C41.788 18.3339 37.1932 22.9701 36.891 28.6812C36.7754 30.8678 37.2778 32.9277 38.2378 34.7004C35.0176 37.4926 32.9756 41.6245 32.9756 46.2392C32.9756 54.5937 39.6595 61.3734 47.9364 61.4603C43.8993 58.7266 41.2426 54.085 41.2426 48.8178Z" fill="#66BB6A"/>
<path d="M47.9298 49.0091C47.4043 49.0091 46.8813 48.792 46.5065 48.3666C45.8144 47.581 45.8902 46.3829 46.6758 45.6911L51.0572 41.8317C51.8428 41.1396 53.0409 41.2154 53.7327 42.001C54.4245 42.7866 54.3489 43.9847 53.5634 44.6765L49.182 48.536C48.8218 48.8532 48.3746 49.0091 47.9298 49.0091Z" fill="#DC8758"/>
<path d="M47.9289 144.106C46.882 144.106 46.0332 143.257 46.0332 142.21V39.2761C46.0332 38.2291 46.882 37.3804 47.9289 37.3804C48.9759 37.3804 49.8247 38.2291 49.8247 39.2761V142.21C49.8247 143.257 48.9759 144.106 47.9289 144.106Z" fill="#DC8758"/>
<path d="M99.4129 57.9609C99.9551 56.564 100.22 55.0295 100.138 53.4233C99.8531 47.7915 95.234 43.2354 89.5854 43.0091C83.2942 42.7571 78.113 47.7715 78.113 53.9935C78.113 55.3903 78.3743 56.7254 78.8502 57.9542C79.1521 58.7335 78.9978 59.6213 78.4176 60.2238C77.8979 60.7634 77.4185 61.3421 76.9851 61.9563C76.9851 61.9563 72.7124 68.7144 75.6506 75.7963C75.7312 75.9904 75.8205 76.1667 75.9155 76.3314C77.4815 83.7917 89.1317 85.2857 89.1317 85.2857C97.3345 85.2857 103.984 78.6551 103.984 70.4728C103.984 66.5109 102.421 62.9127 99.8781 60.2545C99.2909 59.6408 99.1058 58.7522 99.4129 57.9609Z" fill="#81C784"/>
<path d="M83.1869 78.9014C83.0935 78.7365 83.0057 78.5598 82.9266 78.3654C80.0389 71.2714 84.2381 64.5017 84.2381 64.5017C84.664 63.8865 85.1352 63.3068 85.646 62.7663C86.2162 62.1628 86.3681 61.2732 86.0712 60.4926C85.6032 59.2617 85.3466 57.9245 85.3466 56.5252C85.3466 50.5841 89.9742 45.7461 95.762 45.5245C93.9923 44.0376 91.7572 43.1081 89.3281 43.0091C83.1451 42.7567 78.0529 47.7797 78.0529 54.0126C78.0529 55.4117 78.3098 56.7491 78.7775 57.98C79.0742 58.7606 78.9225 59.65 78.3523 60.2537C77.8415 60.7942 77.3704 61.3739 76.9444 61.9892C76.9444 61.9892 72.7452 68.7588 75.6329 75.8528C75.7121 76.0472 75.7998 76.2239 75.8932 76.3888C77.2475 82.9645 86.2737 84.9126 88.4224 85.2857C86.0028 83.9218 83.8023 81.89 83.1869 78.9014Z" fill="#66BB6A"/>
<path d="M89.002 73.6018C88.4765 73.6018 87.9535 73.3847 87.5787 72.9593C86.8866 72.1737 86.9625 70.9756 87.7483 70.2838L92.1297 66.4243C92.915 65.7325 94.1131 65.8081 94.8052 66.5937C95.4973 67.3793 95.4214 68.5774 94.6356 69.2692L90.2542 73.1286C89.8943 73.4458 89.4471 73.6018 89.002 73.6018Z" fill="#DC8758"/>
<path d="M89.0022 122.526C87.955 122.526 87.1064 121.678 87.1064 120.631V63.8684C87.1064 62.8214 87.955 61.9727 89.0022 61.9727C90.0494 61.9727 90.8979 62.8214 90.8979 63.8684V120.63C90.8979 121.678 90.0491 122.526 89.0022 122.526Z" fill="#DC8758"/>
<path d="M74.2307 132.021C73.1835 132.021 72.335 131.172 72.335 130.125V85.3601C72.335 84.3131 73.1835 83.4644 74.2307 83.4644C75.2779 83.4644 76.1264 84.3131 76.1264 85.3601V130.125C76.1264 131.172 75.2779 132.021 74.2307 132.021Z" fill="#DC8758"/>
<path d="M80.9064 79.5723L87.2697 91.7982C87.4178 92.0826 87.2113 92.4228 86.8905 92.4228H82.8301H68.8827H58.5795C57.7651 92.4228 57.2576 91.5394 57.6676 90.8357L67.5481 73.8877L69.9061 69.4593C70.0482 69.1924 69.8548 68.8703 69.5525 68.8703H68.822C68.5389 68.8703 68.3569 68.567 68.4909 68.3168L73.4425 59.0126C73.7787 58.3832 74.6836 58.3832 75.0198 59.0126L78.245 65.0688L80.0118 68.3926C80.1281 68.61 79.9714 68.8703 79.7262 68.8703H78.9121C78.6098 68.8703 78.4164 69.1924 78.5584 69.4593L83.2245 78.2276C83.3888 78.5335 83.1663 78.9025 82.82 78.9025H81.3128C80.9691 78.9025 80.7476 79.2672 80.9064 79.5723Z" fill="#99D5B9"/>
<path d="M62.1981 91.2313L72.3898 74.1926L74.4681 70.3887C74.7752 69.8266 74.3573 69.1484 73.7039 69.1484C73.4119 69.1484 73.2241 68.8435 73.3623 68.5919L76.9683 61.988L75.0488 58.4746C74.702 57.8418 73.7686 57.8418 73.4218 58.4746L68.3141 67.8285C68.1759 68.0801 68.3636 68.385 68.6556 68.385H69.4091C69.721 68.385 69.9204 68.7088 69.7739 68.9771L67.3415 73.4292L57.1498 90.4679C56.7267 91.1754 57.2502 92.0635 58.0905 92.0635H62.0946C62.0138 91.7995 62.0362 91.5022 62.1981 91.2313Z" fill="#7ACAA6"/>
<path d="M55.5079 102.19C62.9682 102.19 69.0159 95.8798 69.0159 88.0952C69.0159 80.3107 62.9682 74 55.5079 74C48.0477 74 42 80.3107 42 88.0952C42 95.8798 48.0477 102.19 55.5079 102.19Z" fill="#81C784"/>
<path d="M50.9346 88.1078C51.1537 81.849 55.28 76.6946 60.7937 75.0646C59.3405 74.4428 57.7583 74.0719 56.0951 74.0094C48.5879 73.7272 42.2812 79.805 42.0091 87.5844C41.7367 95.3637 47.602 101.899 55.1093 102.181C56.5766 102.236 57.9968 102.046 59.3363 101.649C54.2304 99.4642 50.7226 94.1637 50.9346 88.1078Z" fill="#66BB6A"/>
<path d="M54.4813 93.306C54.2644 93.306 54.0435 93.2686 53.8279 93.1892L49.2769 91.5172C48.2939 91.156 47.7899 90.0668 48.1511 89.0841C48.512 88.1013 49.6012 87.5968 50.5842 87.9583L55.1352 89.6303C56.1182 89.9915 56.6222 91.0806 56.261 92.0634C55.9791 92.8308 55.2535 93.306 54.4813 93.306Z" fill="#DC8758"/>
<path d="M57.2678 99.4038C57.2624 93.5252 57.2512 87.6526 57.2512 87.6526C57.2491 86.5987 56.4653 85.7461 55.4991 85.7461C55.498 85.7461 55.4966 85.7461 55.4954 85.7461C54.5278 85.7481 53.745 86.6056 53.7471 87.6608C53.7641 96.6517 53.7793 117.44 53.7515 118.209C53.7546 118.123 53.7873 118.07 53.8419 118.042L53.7515 118.209V120.984H57.2519V118.2C57.2612 117.955 57.2624 117.665 57.264 117.309C57.2671 116.661 57.2689 108.603 57.2699 107.496C57.272 105.286 57.2706 102.344 57.2678 99.4038Z" fill="#DC8758"/>
<path d="M22.5316 86.5397C30.9649 86.5397 37.8014 79.7031 37.8014 71.2698C37.8014 62.8365 30.9649 56 22.5316 56C14.0983 56 7.26172 62.8365 7.26172 71.2698C7.26172 79.7031 14.0983 86.5397 22.5316 86.5397Z" fill="#81C784"/>
<path d="M16.8134 73.5024C16.8134 65.5504 22.9352 59.021 30.7538 58.3012C28.398 56.8442 25.618 56 22.6384 56C14.1463 56 7.26172 62.8365 7.26172 71.2698C7.26172 79.7032 14.146 86.5397 22.6384 86.5397C23.1229 86.5397 23.6016 86.5146 24.0747 86.4711C19.7162 83.7757 16.8134 78.9766 16.8134 73.5024Z" fill="#66BB6A"/>
<path d="M22.7982 74.6005C22.5995 74.6005 22.3976 74.5689 22.1987 74.5027L17.2422 72.8509C16.2489 72.5197 15.712 71.4463 16.0431 70.4531C16.3742 69.46 17.448 68.9229 18.4408 69.254L23.3973 70.9058C24.3906 71.237 24.9275 72.3104 24.5964 73.3036C24.3317 74.098 23.5919 74.6005 22.7982 74.6005Z" fill="#DC8758"/>
<path d="M24.879 92.9747C24.8816 90.1193 24.8797 86.3174 24.8767 82.5173C24.8702 74.919 24.8571 67.328 24.8571 67.328C24.8552 66.2608 24.0721 65.397 23.1069 65.397H23.1034C22.1368 65.399 21.3546 66.2668 21.3564 67.3352C21.3765 79.0204 21.3943 123.695 21.3611 124.593C21.3676 124.419 21.4426 124.322 21.5557 124.273L21.3611 124.593V126.508H24.8573L24.88 122.402L24.8734 122.395C24.8765 119.966 24.8781 94.1602 24.879 92.9747Z" fill="#DC8758"/>
<path d="M17.467 123.243C18.01 123.243 18.5248 123.407 19.0196 123.638C20.726 119.524 23.6766 118 27.0346 118C30.3926 118 33.3415 119.524 35.0496 123.638C35.5444 123.407 36.0591 123.243 36.6022 123.243C39.6201 123.243 42.0691 124.531 42.0691 129.277H12C12 124.531 14.4474 123.243 17.467 123.243Z" fill="#61B872"/>
<path d="M79.0908 122.65C79.5964 122.65 80.0758 122.795 80.5365 123C82.1256 119.352 84.8731 118 88 118C91.1269 118 93.8729 119.352 95.4635 123C95.9242 122.795 96.4036 122.65 96.9092 122.65C99.7195 122.65 102 123.791 102 128H74C74 123.791 76.279 122.65 79.0908 122.65Z" fill="#61B872"/>
<path d="M53.0908 120.65C53.5964 120.65 54.0758 120.795 54.5365 121C56.1256 117.352 58.8731 116 62 116C65.1269 116 67.8729 117.352 69.4635 121C69.9242 120.795 70.4036 120.65 70.9092 120.65C73.7195 120.65 76 121.791 76 126H48C48 121.791 50.279 120.65 53.0908 120.65Z" fill="#61B872"/>
<path d="M0 173H120V149C120 135.745 109.255 125 96 125H24C10.7452 125 0 135.745 0 149V173Z" fill="#81C784"/>
<path d="M10.6774 0H28.4706C30.5009 0 32.1467 1.64587 32.1467 3.6761C32.1467 4.36615 31.9559 5.01063 31.6245 5.56147C31.337 6.03948 31.6613 6.64774 32.2192 6.64774H37.6066C39.5998 6.64774 41.2975 8.19782 41.3684 10.1897C41.4427 12.2811 39.7694 13.9998 37.6948 13.9998H19.9983C17.9379 13.9998 16.1874 12.3136 16.226 10.2536C16.2386 9.58123 16.4324 8.95407 16.7603 8.41726C17.0451 7.95074 16.6892 7.35201 16.1425 7.35201H10.6776C8.64734 7.35201 7.00146 5.70613 7.00146 3.67591C7.00146 1.64587 8.64714 0 10.6774 0Z" fill="#DFF6FD"/>
<path d="M27.4851 11.2557C25.4247 11.2557 23.6743 9.56954 23.7128 7.50952C23.7255 6.83719 23.9192 6.21004 24.2471 5.67322C24.532 5.2067 24.176 4.60797 23.6293 4.60797H18.1644C16.1342 4.60797 14.4883 2.9621 14.4883 0.931876C14.4883 0.609244 14.5341 0.298099 14.6121 0H10.6761C8.64587 0 7 1.64587 7 3.6761C7 5.70633 8.64587 7.3522 10.6761 7.3522H16.141C16.6877 7.3522 17.0437 7.95093 16.7588 8.41745C16.4311 8.95426 16.2372 9.58142 16.2245 10.2537C16.1858 12.3138 17.9364 13.9999 19.9968 13.9999H37.6933C39.4013 13.9999 40.8345 12.8342 41.2473 11.2557H27.4851Z" fill="#C8EFFE"/>
<path d="M75.7324 130.18L75.8157 130.039C75.7653 130.063 75.7352 130.108 75.7324 130.18Z" fill="#AA6A51"/>
<path d="M22.5625 128.918L22.742 128.651C22.6374 128.692 22.5683 128.773 22.5625 128.918Z" fill="#AA6A51"/>
<rect x="49" y="143" width="19" height="6" rx="3" transform="rotate(-180 49 143)" fill="#66BB6A"/>
<rect x="97" y="145" width="19" height="6" rx="3" transform="rotate(-180 97 145)" fill="#66BB6A"/>
<rect x="84" y="162" width="19" height="6" rx="3" transform="rotate(-180 84 162)" fill="#66BB6A"/>
<rect x="32" y="160" width="19" height="6" rx="3" transform="rotate(-180 32 160)" fill="#66BB6A"/>
</svg>
